<svg width="98" height="28" viewBox="0 0 98 28" fill="none" xmlns="http://www.w3.org/2000/svg">
<path d="M10.6555 0.777779H0V26.0583L10.6555 0.777779Z" fill="#A7A7A7"/>
<path d="M18.1523 0.777779H28.794V26.0583L18.1523 0.777779Z" fill="#A7A7A7"/>
<path d="M14.4039 10.0953L21.186 26.0583H16.7363L14.7094 20.976H9.74609L14.4039 10.0953Z" fill="#A7A7A7"/>
<path d="M46.1783 16.8545L47.4348 20.4286C47.4764 20.5182 47.539 20.5595 47.65 20.5595H50.0656C50.1976 20.5595 50.2184 20.4974 50.1976 20.3666L45.2066 6.61415C45.1856 6.50397 45.1648 6.48331 45.0537 6.48331H42.0549C41.9718 6.48331 41.9231 6.54527 41.9231 6.63482C41.8815 7.35789 41.8189 7.57827 41.7287 7.79176L37.2791 20.346C37.2583 20.4974 37.307 20.5595 37.4319 20.5595H39.5907C39.7225 20.5595 39.7851 20.5182 39.8336 20.3872L41.0207 16.8545H46.1783ZM41.7079 14.5199C42.3604 12.5642 43.2212 10.0574 43.5683 8.62502H43.5891C44.0195 10.1263 45.0329 13.1013 45.4911 14.5199H41.7079Z" fill="#A7A7A7"/>
<path d="M56.6135 20.773C57.9116 20.773 59.293 20.5388 60.6952 19.9396C60.8063 19.8983 60.8271 19.8502 60.8271 19.7469C60.7855 19.3612 60.7368 18.8034 60.7368 18.3764V5.42966C60.7368 5.34703 60.7368 5.3057 60.6327 5.3057H58.2795C58.1892 5.3057 58.1476 5.34703 58.1476 5.45721V9.84396C57.7798 9.80263 57.5228 9.78197 57.2175 9.78197C53.4203 9.78197 51.0879 12.268 51.0879 15.3739C51.0879 18.9756 53.4828 20.773 56.6135 20.773ZM58.1476 18.3764C57.7588 18.5003 57.3286 18.5486 56.8913 18.5486C55.1696 18.5486 53.7604 17.5845 53.7604 15.243C53.7604 13.1702 55.2112 11.9444 57.1342 11.9444C57.5228 11.9444 57.863 11.9857 58.1476 12.0959V18.3764Z" fill="#A7A7A7"/>
<path d="M68.3348 9.78197C65.093 9.78197 63.0869 12.2474 63.0869 15.2912C63.0869 18.0114 64.6834 20.7729 68.2863 20.7729C71.3336 20.7729 73.4716 18.5486 73.4716 15.2224C73.4716 12.2887 71.6598 9.78197 68.3348 9.78197ZM68.2029 11.9443C70.0354 11.9443 70.8129 13.5076 70.8129 15.2912C70.8129 17.4949 69.6676 18.5899 68.3348 18.5899C66.6896 18.5899 65.7179 17.2195 65.7179 15.243C65.7179 13.2115 66.7521 11.9443 68.2029 11.9443Z" fill="#A7A7A7"/>
<path d="M75.9048 5.3057C75.8145 5.3057 75.752 5.34703 75.752 5.45721V20.1118C75.752 20.1739 75.8145 20.2841 75.9048 20.3047C76.939 20.6215 78.022 20.773 79.1396 20.773C82.3397 20.773 85.4496 18.8034 85.4496 14.8367C85.4496 11.965 83.4642 9.78197 80.3544 9.78197C79.6393 9.78197 78.9729 9.89216 78.3898 10.085L78.3621 5.47787C78.3621 5.32636 78.3205 5.3057 78.1677 5.3057H75.9048ZM82.7909 15.0984C82.7909 17.4743 81.1526 18.5899 79.3825 18.5899C79.0146 18.5899 78.6884 18.5692 78.3898 18.4797V12.2267C78.73 12.0959 79.1396 11.9857 79.8963 11.9857C81.6038 11.9857 82.7909 13.06 82.7909 15.0984Z" fill="#A7A7A7"/>
<path d="M94.2311 15.8697C95.2861 15.8697 96.1538 15.849 96.4524 15.7802C96.5635 15.7595 96.605 15.7182 96.6258 15.6287C96.6884 15.3945 96.7161 14.9056 96.7161 14.3065C96.7161 12.268 95.4805 9.78197 92.2873 9.78197C89.0248 9.78197 87.2129 12.4195 87.2129 15.3945C87.2129 18.0321 88.6152 20.7729 92.5441 20.7729C94.0159 20.7729 94.9668 20.5388 95.786 20.1531C95.8692 20.1118 95.9109 20.0429 95.9109 19.919V18.1354C95.9109 18.0321 95.8484 18.0114 95.786 18.0527C94.9668 18.3971 94.0782 18.5692 93.1065 18.5692C90.906 18.5692 89.9064 17.3641 89.8438 15.8697H94.2311ZM89.8438 14.0241C90.0175 12.9773 90.6839 11.8411 92.1762 11.8411C93.8214 11.8411 94.2519 13.2115 94.2519 13.8313C94.2519 13.8519 94.2519 13.9415 94.2519 14.0034C94.1616 14.0241 93.884 14.0241 93.0648 14.0241H89.8438Z" fill="#A7A7A7"/>
</svg>
