<svg width="137" height="36" viewBox="0 0 137 36" fill="none" xmlns="http://www.w3.org/2000/svg">
<path fill-rule="evenodd" clip-rule="evenodd" d="M0 25.8355L4.91558 22.0512C7.52676 25.4758 10.3007 27.0549 13.3892 27.0549C16.4611 27.0549 19.1565 25.4945 21.6501 22.0964L26.6353 25.7893C23.038 30.6888 18.5665 33.2772 13.3892 33.2772C8.22857 33.2772 3.71388 30.7065 0 25.8355Z" fill="#A6A6A6"/>
<path fill-rule="evenodd" clip-rule="evenodd" d="M13.1121 9.38853L4.36403 16.9649L0.319824 12.251L13.1307 1.15674L25.8406 12.2599L21.7778 16.957L13.1121 9.38853Z" fill="#A6A6A6"/>
<path d="M45.2243 28.6037C42.2377 28.6037 39.748 27.6308 37.7289 25.6852C35.7097 23.712 34.7148 21.1826 34.7148 18.096C34.7148 14.9839 35.7372 12.4261 37.7553 10.4244C39.8039 8.39515 42.2936 7.39578 45.2537 7.39578C48.9048 7.39578 52.1394 8.97788 54.0223 11.4542L50.7289 14.9279C49.1528 13.2309 47.4375 12.37 45.585 12.37C44.0079 12.37 42.7082 12.8967 41.628 13.9816C40.5773 15.0675 40.0529 16.4304 40.0529 18.0695C40.0529 19.6536 40.5773 20.988 41.628 22.0729C42.7082 23.1283 44.0079 23.655 45.5566 23.655C47.5757 23.655 49.3469 22.7657 50.8123 21.0146L54.2429 24.3232C53.3019 25.5741 52.0296 26.603 50.4525 27.4088C48.8754 28.2146 47.1337 28.6037 45.2243 28.6037ZM60.0455 7.08821V28.2981H55.1789V7.08821H60.0455ZM64.6592 11.5898C63.0282 11.5898 61.8392 10.3949 61.8392 8.75678C61.8392 7.17174 63.084 5.97583 64.6592 5.97583C66.2373 5.97583 67.4546 7.17174 67.4546 8.75678C67.4546 10.3949 66.2363 11.5928 64.6592 11.5928V11.5898ZM67.1224 12.9528V28.2981H62.2254V12.9528H67.1224ZM76.4938 28.6322C74.0865 28.6322 72.1516 27.8814 70.6314 26.3799C69.1366 24.8794 68.3897 22.9602 68.3897 20.5979C68.3897 18.2346 69.1366 16.3184 70.6579 14.8159C72.1801 13.3144 74.1424 12.5656 76.5761 12.5656C79.7578 12.5656 82.5523 14.1212 83.851 17.0397L79.9519 19.0984C79.1775 17.7914 78.0984 17.1232 76.6879 17.1232C75.6636 17.1232 74.8344 17.4573 74.1688 18.1255C73.8533 18.4536 73.6055 18.8408 73.4395 19.2651C73.2735 19.6893 73.1926 20.1423 73.2014 20.5979C73.2014 22.6271 74.6668 24.1286 76.632 24.1286C78.0425 24.1286 79.3422 23.3504 79.896 22.1554L83.7971 24.4893C82.468 27.0471 79.7294 28.6322 76.4938 28.6322ZM100.776 28.2981H94.9652L90.4544 22.2095L89.736 22.8777V28.2981H84.8714V7.08821H89.7389V17.4013L94.3291 12.9528H100.277L93.7223 19.1249L100.776 28.2981ZM101.102 20.3198V7.75446H106.302V20.2373C106.302 22.5436 107.63 23.656 109.539 23.656C111.419 23.656 112.747 22.4876 112.747 20.2363V7.75446H117.976V20.3198C117.976 26.3799 113.797 28.6597 109.539 28.6597C105.307 28.6597 101.102 26.3799 101.102 20.3198ZM129.532 12.5656C131.718 12.5656 133.489 13.3429 134.899 14.8994C136.309 16.4285 137 18.3466 137 20.5979C137 22.8512 136.282 24.7674 134.872 26.3524C133.46 27.908 131.69 28.6882 129.56 28.6882C127.872 28.6882 126.406 28.132 125.217 27.0206V34.6088H120.32V12.9528H125.135V14.3717C126.324 13.1748 127.789 12.5656 129.532 12.5656ZM132.021 20.6529C132.021 18.6522 130.585 17.1232 128.592 17.1232C126.6 17.1232 125.135 18.6522 125.135 20.6539C125.135 21.6268 125.465 22.461 126.102 23.1558C126.765 23.8505 127.595 24.1846 128.592 24.1846C129.587 24.1846 130.417 23.8505 131.053 23.1558C131.688 22.4793 132.036 21.5824 132.024 20.6539L132.021 20.6529Z" fill="#A6A6A6"/>
</svg>
