<svg width="22" height="31" viewBox="0 0 22 31" fill="none" xmlns="http://www.w3.org/2000/svg">
<path fill-rule="evenodd" clip-rule="evenodd" d="M5.72647 11.449C3.59887 11.449 1.87412 13.1731 1.87412 15.3C1.87412 17.4269 3.59887 19.151 5.72647 19.151H9.68294V15.3V11.449H5.72647ZM15.4094 9.57551L15.5135 9.57551C17.6411 9.57551 19.3659 7.85135 19.3659 5.72449C19.3659 3.59763 17.6411 1.87347 15.5135 1.87347H11.5571V9.57551L15.4094 9.57551ZM18.6538 10.5122C20.2115 9.48918 21.24 7.7269 21.24 5.72449C21.24 2.56294 18.6762 0 15.5135 0H11.5571H10.62H9.68294H5.72647C2.56383 0 0 2.56294 0 5.72449C0 7.7269 1.02848 9.48918 2.58618 10.5122C1.02848 11.5353 0 13.2976 0 15.3C0 17.3024 1.02848 19.0647 2.58618 20.0878C1.02848 21.1108 0 22.8731 0 24.8755C0 28.0436 2.5963 30.6 5.75236 30.6C8.93717 30.6 11.5571 28.0203 11.5571 24.8235V21.0245V20.0878V19.5355C12.5742 20.4606 13.9259 21.0245 15.4094 21.0245H15.5135C18.6762 21.0245 21.24 18.4615 21.24 15.3C21.24 13.2976 20.2115 11.5353 18.6538 10.5122ZM15.5135 11.449L15.4094 11.449C13.2818 11.449 11.5571 13.1731 11.5571 15.3C11.5571 17.4269 13.2818 19.151 15.4094 19.151H15.5135C17.6411 19.151 19.3659 17.4269 19.3659 15.3C19.3659 13.1731 17.6411 11.449 15.5135 11.449ZM1.87412 24.8755C1.87412 22.7486 3.59887 21.0245 5.72647 21.0245H9.68294V24.8235C9.68294 26.9725 7.91529 28.7265 5.75236 28.7265C3.61818 28.7265 1.87412 26.9958 1.87412 24.8755ZM9.68294 9.57551H5.72647C3.59887 9.57551 1.87412 7.85135 1.87412 5.72449C1.87412 3.59763 3.59887 1.87347 5.72647 1.87347H9.68294V9.57551Z" fill="#A6A6A6"/>
</svg>
