<svg width="113" height="38" viewBox="0 0 113 38" fill="none" xmlns="http://www.w3.org/2000/svg">
<path d="M5.0825 0.633209H0V30.146H5.0825V0.633209Z" fill="white"/>
<path d="M27.1743 26.8096V15.6624C27.1743 12.8405 26.1453 10.8293 24.1653 9.62884C22.7778 8.75577 20.9069 8.39719 18.4904 8.39719C12.4569 8.39719 9.60379 11.6868 9.44788 15.3038H14.203C14.3277 13.1991 15.7153 11.8895 18.5216 11.8895C21.0628 11.8895 22.3256 13.1211 22.3256 14.9452C22.3256 16.7693 20.5795 17.4085 17.0872 17.845C12.0515 18.4375 8.40332 19.5912 8.40332 24.393C8.40332 28.5245 11.4902 30.6604 15.6217 30.6604C18.9893 30.6604 20.8913 29.2729 22.2789 27.402H22.3568C22.4348 28.8363 22.7154 29.6626 23.074 30.1459H27.9538V29.7874C27.4705 29.4755 27.1587 28.5557 27.1587 26.8096H27.1743ZM22.4504 22.4442C22.4504 24.8296 20.5483 27.1993 17.0872 27.1993C15.1384 27.1993 13.4391 26.5289 13.4391 24.2683C13.4391 22.0077 15.232 21.2905 18.3189 20.6981C19.8623 20.3863 21.4526 19.9497 22.4504 19.3105V22.4442Z" fill="white"/>
<path d="M41.5015 18.7962C40.6285 21.3686 39.6774 25.3754 39.6774 25.3754H39.5995C39.5995 25.3754 38.7264 21.4154 37.8066 18.7962L34.3143 8.95858H28.9512L36.2475 27.371C36.6841 28.5247 36.4814 30.5047 36.4814 30.8944C36.0449 32.5938 35.0938 33.233 33.3945 33.233C32.88 33.233 31.4924 33.155 31.2897 33.0303H31.0091V37.115C31.3677 37.2398 34.0649 37.3489 34.7041 37.3489C38.1496 37.3489 39.9737 35.9925 41.7198 31.3154L49.936 8.94299H44.8535L41.4859 18.7806L41.5015 18.7962Z" fill="white"/>
<path d="M60.9279 8.41284C54.6605 8.41284 50.4199 13.2927 50.4199 19.6068C50.4199 25.921 54.4734 30.8008 61.2085 30.8008C66.4002 30.8008 69.8145 27.9789 70.8435 24.1748H65.9169C65.2465 25.921 63.6563 26.9499 61.2397 26.9499C57.7163 26.9499 55.7675 24.4867 55.4089 20.8385H71.2332C71.28 16.9097 70.2822 13.5733 68.2243 11.3906C66.4314 9.48859 64.0148 8.41284 60.9279 8.41284ZM55.5024 17.658C55.939 14.3216 57.6383 12.061 60.9435 12.061C63.9992 12.061 65.8701 14.1657 66.0572 17.658H55.5024Z" fill="white"/>
<path d="M79.4176 12.778H79.2929V8.97395H74.4131V30.1614H79.4488V19.5287C79.4488 15.444 81.9433 13.1834 85.2797 13.2146C85.7942 13.2146 86.1995 13.2613 86.6672 13.3705H86.8231V8.84922C86.4645 8.69332 86.0748 8.64655 85.4668 8.64655C82.7696 8.64655 80.7428 10.0341 79.402 12.778H79.4176Z" fill="white"/>
<path d="M99.3274 17.1747C96.1158 16.5823 93.9331 16.2237 93.9331 14.3528C93.9331 12.8873 95.1648 11.8116 97.5034 11.8116C99.9978 11.8116 101.354 12.8094 101.713 14.6335H106.515C106 10.9385 103.178 8.41284 97.5501 8.41284C92.5923 8.41284 89.178 10.7202 89.178 14.727C89.178 19.5289 92.9509 20.4331 96.9109 21.2282C100.247 21.8674 102.383 22.2572 102.383 24.3619C102.383 26.0613 101.074 27.2618 98.2985 27.2618C95.5234 27.2618 93.6525 26.186 93.2627 23.6448H88.4297C88.7415 27.9322 92.2338 30.832 98.2673 30.832C103.506 30.832 107.31 28.4934 107.31 24.0501C107.31 18.8897 103.35 17.9386 99.343 17.1903L99.3274 17.1747Z" fill="white"/>
<path d="M107.979 8.56885H110.084V8.98979H109.273V11.1725H108.79V8.98979H107.979V8.56885Z" fill="white"/>
<path d="M110.412 8.56891H111.051L111.472 9.80056C111.581 10.1124 111.706 10.6736 111.706 10.6736C111.706 10.6736 111.831 10.1124 111.924 9.80056L112.345 8.56891H113V11.1725H112.548V9.81615C112.548 9.53552 112.579 9.00544 112.579 9.00544C112.579 9.00544 112.47 9.48875 112.392 9.7382L111.893 11.1725H111.503L111.005 9.7382C110.927 9.47316 110.817 9.00544 110.817 9.00544C110.817 9.00544 110.849 9.53552 110.849 9.81615V11.1725H110.412V8.56891Z" fill="white"/>
</svg>
