<svg width="100" height="25" viewBox="0 0 100 25" fill="none" xmlns="http://www.w3.org/2000/svg">
<path d="M31.4862 19.6328L32.7012 16.793C34.0316 17.7782 35.7667 18.2996 37.5023 18.2996C38.7749 18.2996 39.5847 17.8072 39.5847 17.0539C39.5556 14.9674 31.9201 16.5902 31.8621 11.3444C31.833 8.6784 34.2049 6.62093 37.5603 6.62093C39.5556 6.62093 41.5517 7.11373 42.9687 8.24409L41.8333 11.1445C40.5296 10.3061 38.9193 9.72167 37.3866 9.72167C36.3453 9.72167 35.6509 10.214 35.6509 10.852C35.68 12.9095 43.374 11.7792 43.4607 16.793C43.4607 19.5171 41.1464 21.4298 37.849 21.4298C35.4199 21.4298 33.1928 20.8504 31.4858 19.6328H31.4862ZM79.8653 15.7647C79.5585 16.3096 79.1124 16.7631 78.5726 17.0788C78.0328 17.3944 77.4189 17.5607 76.7936 17.5608C74.8448 17.5608 73.2651 15.9779 73.2651 14.0253C73.2651 12.0728 74.8448 10.4899 76.7936 10.4899C77.4189 10.4899 78.0328 10.6564 78.5726 10.972C79.1124 11.2875 79.5585 11.7411 79.8653 12.2861L83.2431 10.4111C81.9779 8.14993 79.5645 6.62093 76.7936 6.62093C72.7122 6.62093 69.4037 9.93568 69.4037 14.0253C69.4037 18.1146 72.7122 21.4298 76.7936 21.4298C79.5645 21.4298 81.9779 19.9008 83.2431 17.6397L79.8653 15.7647ZM45.6526 21.1399H49.8753V0.457191H45.653L45.6526 21.1399ZM85.3757 0.457191V21.1399H89.5985V14.9433L94.6024 21.1399H100L93.6367 13.7785L99.537 6.90964H94.3709L89.5985 12.6204V0.457191H85.3757ZM62.8853 6.91047V8.59171C62.1913 7.43231 60.4847 6.62093 58.6915 6.62093C54.9892 6.62093 52.0681 9.89586 52.0681 14.0109C52.0681 18.1258 54.9892 21.4298 58.6915 21.4298C60.4847 21.4298 62.1913 20.6184 62.8853 19.4591V21.1399H67.108V6.91047H62.8853ZM62.8853 15.7933C62.278 16.8075 61.0053 17.5604 59.5883 17.5604C57.6391 17.5604 56.0594 15.9779 56.0594 14.0253C56.0594 12.0728 57.6391 10.4899 59.5883 10.4899C61.0053 10.4899 62.278 11.2722 62.8853 12.3151V15.7933Z" fill="#A7A7A7"/>
<path d="M9.18537 0C7.8169 0 6.70768 1.1117 6.70768 2.48267C6.70736 2.80837 6.77119 3.13095 6.89552 3.43198C7.01987 3.73302 7.20227 4.00661 7.43236 4.23715C7.66243 4.46769 7.93566 4.65065 8.23644 4.77559C8.53722 4.90054 8.85967 4.96501 9.18537 4.96534H11.6635V2.48267C11.6641 1.82485 11.4032 1.19374 10.9385 0.728162C10.4738 0.262583 9.84319 0.000659755 9.18537 0ZM9.18537 6.62045H2.57779C1.20932 6.62045 0.100098 7.73214 0.100098 9.10352C0.100098 10.4745 1.20932 11.5862 2.57779 11.5862H9.18579C10.5538 11.5862 11.6635 10.4745 11.6635 9.10352C11.6635 7.73214 10.5538 6.62045 9.18537 6.62045Z" fill="#A7A7A7"/>
<path d="M24.8788 9.10352C24.8788 7.73214 23.7692 6.62045 22.4007 6.62045C21.0322 6.62045 19.923 7.73214 19.923 9.10352V11.5862H22.4007C23.0585 11.5855 23.6891 11.3236 24.1538 10.8581C24.6186 10.3924 24.8793 9.76134 24.8788 9.10352ZM18.2712 9.10352V2.48267C18.2717 1.82485 18.011 1.19374 17.5462 0.728162C17.0815 0.262583 16.4509 0.000659755 15.7931 0C14.4246 0 13.3154 1.1117 13.3154 2.48267V9.10311C13.3154 10.4749 14.4246 11.5866 15.7931 11.5866C16.4509 11.5859 17.0815 11.324 17.5462 10.8585C18.011 10.3928 18.2717 9.76176 18.2712 9.10394" fill="#A7A7A7"/>
<path d="M15.7931 24.8276C16.4509 24.827 17.0815 24.5651 17.5462 24.0995C18.011 23.6339 18.2717 23.0027 18.2712 22.345C18.2717 21.6871 18.011 21.056 17.5462 20.5904C17.0815 20.1249 16.4509 19.863 15.7931 19.8623H13.3154V22.345C13.3154 23.716 14.4246 24.8276 15.7931 24.8276ZM15.7931 18.2072H22.4011C23.7692 18.2072 24.8788 17.0955 24.8788 15.7241C24.8793 15.0663 24.6186 14.4352 24.1538 13.9696C23.6891 13.5041 23.0585 13.2421 22.4007 13.2414H15.7931C14.4246 13.2414 13.3154 14.3532 13.3154 15.7241C13.315 16.0498 13.3789 16.3723 13.5033 16.6734C13.6275 16.9745 13.81 17.248 14.0401 17.4786C14.2702 17.7091 14.5433 17.8921 14.8442 18.017C15.145 18.1419 15.4674 18.2065 15.7931 18.2068" fill="#A7A7A7"/>
<path d="M0.100099 15.7241C0.0997719 16.0498 0.1636 16.3723 0.287938 16.6734C0.412277 16.9745 0.594691 17.248 0.824766 17.4786C1.05484 17.7091 1.32807 17.8921 1.62885 18.017C1.92964 18.1419 2.25209 18.2065 2.57779 18.2068C3.23561 18.2061 3.86624 17.9441 4.33096 17.4786C4.79568 17.013 5.05644 16.3819 5.05589 15.7241V13.2414H2.57779C1.20932 13.2414 0.100099 14.3532 0.100099 15.7241ZM6.70768 15.7241V22.3446C6.70768 23.716 7.8169 24.8276 9.18537 24.8276C9.84319 24.827 10.4738 24.5651 10.9385 24.0995C11.4032 23.6339 11.6641 23.0027 11.6635 22.345V15.7241C11.6638 15.3984 11.6 15.0757 11.4756 14.7747C11.3513 14.4736 11.1688 14.2 10.9387 13.9695C10.7085 13.7389 10.4353 13.556 10.1344 13.4311C9.83361 13.3061 9.51112 13.2417 9.18537 13.2414C7.8169 13.2414 6.70768 14.3532 6.70768 15.7241Z" fill="#A7A7A7"/>
</svg>
