<svg width="147" height="44" viewBox="0 0 147 44" fill="none" xmlns="http://www.w3.org/2000/svg">
<path fill-rule="evenodd" clip-rule="evenodd" d="M63.5408 25.4298H63.4994L60.9609 15.1918H57.902L55.3217 25.3056H55.2802L52.9292 15.1918H49.6621L53.595 30.0491H56.904L59.3796 19.9372H59.4214L61.9385 30.0491H65.1852L69.1802 15.1918H65.9763L63.5408 25.4298ZM79.147 20.2179C78.8552 19.8361 78.4566 19.5388 77.9507 19.3235C77.444 19.1079 76.7956 19.0007 76.0054 19.0007C75.4499 19.0007 74.8814 19.1435 74.2982 19.4267C73.7165 19.7115 73.2375 20.1656 72.8625 20.7903H72.8008V15.1918H69.8456V30.0491H72.8008V24.4107C72.8008 23.3153 72.9801 22.528 73.3412 22.0485C73.7021 21.5697 74.2846 21.3315 75.0897 21.3315C75.7964 21.3315 76.2891 21.5492 76.5665 21.9864C76.8439 22.4237 76.9833 23.0871 76.9833 23.9735V30.0491H79.9376V23.4333C79.9376 22.7671 79.8791 22.1606 79.7615 21.6126C79.6424 21.0645 79.4381 20.5996 79.147 20.2179ZM91.3187 27.657V22.0591C91.3187 21.4076 91.1737 20.8834 90.8815 20.4884C90.5905 20.0931 90.2157 19.7839 89.7586 19.5619C89.3008 19.34 88.7933 19.1906 88.2394 19.1145C87.6846 19.0395 87.1366 19.0005 86.5958 19.0005C85.9997 19.0005 85.4057 19.0598 84.8169 19.177C84.2263 19.2946 83.6963 19.4924 83.2244 19.7699C82.7529 20.048 82.3645 20.4152 82.0602 20.8723C81.7544 21.3313 81.581 21.9063 81.5391 22.6009H84.4938C84.5493 22.0173 84.7445 21.6013 85.0766 21.3515C85.4095 21.102 85.8666 20.9766 86.4502 20.9766C86.7136 20.9766 86.9592 20.9944 87.1887 21.0294C87.4173 21.0643 87.6187 21.133 87.7924 21.2366C87.9658 21.3417 88.104 21.4869 88.2084 21.6738C88.312 21.862 88.3644 22.115 88.3644 22.4335C88.378 22.7385 88.2875 22.9716 88.094 23.1311C87.8992 23.2909 87.6365 23.4121 87.3029 23.4943C86.97 23.5785 86.5885 23.6414 86.1586 23.6817C85.7282 23.7239 85.2914 23.7798 84.8479 23.8493C84.4033 23.9188 83.9632 24.0123 83.5268 24.1299C83.0896 24.2475 82.6999 24.4251 82.3623 24.6603C82.0216 24.8974 81.7434 25.2117 81.5291 25.6075C81.3138 26.0028 81.2062 26.5054 81.2062 27.1149C81.2062 27.6712 81.2998 28.1497 81.488 28.5506C81.6743 28.9541 81.9343 29.287 82.2672 29.5498C82.6008 29.8145 82.9884 30.008 83.4329 30.1326C83.876 30.2576 84.3548 30.3197 84.8685 30.3197C85.5343 30.3197 86.1866 30.2231 86.8234 30.0298C87.4618 29.8338 88.0181 29.4943 88.4888 29.0094C88.5024 29.1891 88.5269 29.3663 88.5617 29.5401C88.5966 29.7128 88.6416 29.8836 88.6971 30.0491H91.6934C91.5552 29.8283 91.4575 29.4943 91.4024 29.0512C91.3467 28.6076 91.3187 28.1429 91.3187 27.657ZM88.3644 25.8873C88.3644 26.0538 88.3474 26.2768 88.312 26.554C88.2779 26.8314 88.184 27.1043 88.0317 27.3751C87.8789 27.6459 87.6418 27.8788 87.3243 28.0719C87.005 28.2664 86.5544 28.3648 85.9712 28.3648C85.736 28.3648 85.5071 28.3427 85.2851 28.3016C85.0628 28.2605 84.8691 28.1872 84.7019 28.0831C84.5362 27.9787 84.4039 27.8375 84.3069 27.657C84.21 27.4762 84.1611 27.2543 84.1611 26.9913C84.1611 26.7138 84.21 26.4845 84.3069 26.3041C84.4039 26.1248 84.5324 25.9757 84.6923 25.8574C84.8513 25.7387 85.0388 25.6459 85.2537 25.5756C85.469 25.5058 85.6867 25.4514 85.909 25.4092C86.1442 25.3681 86.3813 25.3331 86.6161 25.3056C86.8528 25.2789 87.0779 25.2428 87.2928 25.2017C87.5081 25.1598 87.7085 25.1081 87.8965 25.0453C88.0836 24.9832 88.2398 24.8974 88.3648 24.7857V25.8873H88.3644ZM96.8329 16.0661H93.878V19.2914H92.0896V21.2684H93.878V27.614C93.878 28.1554 93.9689 28.5926 94.1488 28.9255C94.3296 29.2584 94.5756 29.5165 94.8869 29.6954C95.1993 29.8759 95.5601 29.998 95.9694 30.0601C96.3781 30.1215 96.813 30.1533 97.2697 30.1533C97.5623 30.1533 97.8596 30.1455 98.1652 30.1326C98.4699 30.1186 98.7473 30.0912 98.9974 30.0491V27.7602C98.8584 27.7886 98.7126 27.8102 98.5602 27.8235C98.4077 27.8375 98.2481 27.8441 98.0817 27.8441C97.5824 27.8441 97.2495 27.7602 97.0825 27.5938C96.9172 27.4273 96.8333 27.0944 96.8333 26.5953V21.2686H98.9976V19.2915H96.8333V16.0661H96.8329ZM109.047 25.3371C108.853 24.9975 108.596 24.7124 108.277 24.4831C107.958 24.2545 107.593 24.071 107.185 23.9313C106.775 23.7936 106.355 23.676 105.926 23.5785C105.509 23.4816 105.101 23.3911 104.699 23.3077C104.296 23.2246 103.938 23.1309 103.626 23.0271C103.314 22.9228 103.062 22.7874 102.867 22.621C102.673 22.4545 102.577 22.2392 102.577 21.9756C102.577 21.7545 102.631 21.5776 102.742 21.4449C102.853 21.314 102.989 21.2129 103.148 21.143C103.308 21.0743 103.483 21.0294 103.678 21.0088C103.872 20.9878 104.053 20.9766 104.219 20.9766C104.747 20.9766 105.204 21.0783 105.594 21.2784C105.981 21.4803 106.197 21.8647 106.237 22.4335H109.047C108.992 21.7677 108.822 21.2163 108.537 20.7793C108.253 20.3425 107.895 19.9927 107.466 19.7286C107.036 19.4656 106.547 19.2781 105.998 19.1664C105.45 19.0554 104.885 19.0007 104.304 19.0007C103.72 19.0007 103.151 19.0524 102.598 19.1571C102.041 19.2603 101.542 19.4411 101.099 19.6975C100.654 19.9541 100.298 20.3044 100.027 20.7482C99.7561 21.1925 99.6208 21.7613 99.6208 22.4547C99.6208 22.9273 99.7185 23.3257 99.9129 23.651C100.106 23.9773 100.363 24.2475 100.682 24.4632C101.001 24.6777 101.366 24.8516 101.775 24.9832C102.184 25.1155 102.604 25.2295 103.033 25.327C104.088 25.5482 104.91 25.7701 105.5 25.992C106.089 26.2136 106.384 26.5476 106.384 26.9913C106.384 27.2543 106.321 27.4716 106.197 27.6459C106.072 27.8201 105.915 27.9579 105.729 28.0622C105.54 28.1666 105.332 28.2427 105.105 28.2904C104.875 28.3396 104.656 28.3648 104.448 28.3648C104.157 28.3648 103.876 28.3287 103.607 28.2605C103.335 28.1906 103.097 28.0829 102.888 27.9373C102.68 27.7917 102.509 27.6048 102.378 27.3751C102.247 27.1465 102.18 26.8737 102.18 26.554H99.3712C99.3996 27.2753 99.5621 27.8755 99.8612 28.3537C100.158 28.8322 100.539 29.2169 101.005 29.5087C101.469 29.7998 102.001 30.008 102.598 30.1326C103.193 30.2576 103.804 30.3197 104.427 30.3197C105.037 30.3197 105.638 30.2608 106.228 30.1436C106.817 30.0253 107.341 29.8204 107.799 29.529C108.257 29.2379 108.627 28.853 108.913 28.3743C109.196 27.8958 109.338 27.3026 109.338 26.5951C109.338 26.0956 109.241 25.6766 109.047 25.3371ZM114.915 15.1918L109.297 30.0491H112.585L113.749 26.7413H119.305L120.428 30.0491H123.821L118.265 15.1918H114.915ZM114.602 24.3072L116.537 18.8543H116.579L118.452 24.3072H114.602ZM134.036 20.7482C133.635 20.2213 133.129 19.7984 132.518 19.479C131.907 19.1598 131.179 19.0009 130.334 19.0009C129.667 19.0009 129.057 19.1329 128.502 19.3959C127.946 19.6593 127.49 20.0827 127.129 20.6651H127.087V19.2915H124.277V33.816H127.234V28.7185H127.273C127.634 29.2451 128.096 29.6439 128.658 29.9145C129.219 30.1853 129.833 30.3199 130.499 30.3199C131.291 30.3199 131.981 30.1667 132.57 29.8621C133.16 29.5578 133.652 29.1476 134.047 28.6347C134.443 28.1217 134.737 27.5319 134.933 26.8665C135.126 26.1999 135.223 25.5058 135.223 24.7858C135.223 24.0226 135.126 23.2909 134.933 22.5901C134.737 21.8899 134.44 21.276 134.036 20.7482ZM132.144 25.9714C132.06 26.3878 131.917 26.751 131.717 27.0632C131.516 27.3753 131.252 27.6298 130.925 27.8237C130.6 28.0168 130.194 28.1151 129.709 28.1151C129.236 28.1151 128.836 28.0166 128.502 27.8237C128.169 27.6299 127.902 27.3755 127.701 27.0632C127.5 26.7512 127.355 26.388 127.264 25.9714C127.174 25.555 127.129 25.1318 127.129 24.7029C127.129 24.2583 127.17 23.8283 127.253 23.4123C127.337 22.9963 127.479 22.6278 127.68 22.3095C127.881 21.9898 128.145 21.7295 128.471 21.5284C128.797 21.3279 129.202 21.2277 129.689 21.2277C130.159 21.2277 130.559 21.3279 130.885 21.5284C131.21 21.7297 131.478 21.9944 131.686 22.3195C131.894 22.6458 132.042 23.0167 132.132 23.4335C132.223 23.8495 132.267 24.2735 132.267 24.7031C132.268 25.1318 132.227 25.555 132.144 25.9714ZM146.709 22.5899C146.515 21.8899 146.216 21.276 145.814 20.7481C145.411 20.2211 144.906 19.7983 144.295 19.4788C143.684 19.1596 142.956 19.0007 142.11 19.0007C141.444 19.0007 140.834 19.1327 140.279 19.3957C139.724 19.6591 139.266 20.0825 138.906 20.6649H138.865V19.2914H136.055V33.8158H139.009V28.7184H139.051C139.412 29.2449 139.874 29.6437 140.435 29.9143C140.997 30.1851 141.611 30.3197 142.278 30.3197C143.068 30.3197 143.758 30.1665 144.348 29.8619C144.936 29.5576 145.43 29.1474 145.825 28.6345C146.22 28.1215 146.515 27.5317 146.709 26.8663C146.903 26.1998 147 25.5056 147 24.7857C147 24.0224 146.903 23.2907 146.709 22.5899ZM143.921 25.9714C143.838 26.3878 143.696 26.751 143.495 27.0632C143.293 27.3753 143.029 27.6298 142.703 27.8237C142.378 28.0168 141.972 28.1151 141.486 28.1151C141.015 28.1151 140.612 28.0166 140.279 27.8237C139.946 27.6299 139.679 27.3755 139.478 27.0632C139.278 26.7512 139.131 26.388 139.04 25.9714C138.951 25.555 138.906 25.1318 138.906 24.7029C138.906 24.2583 138.949 23.8283 139.031 23.4123C139.114 22.9963 139.256 22.6278 139.457 22.3095C139.659 21.9898 139.923 21.7295 140.248 21.5284C140.573 21.3279 140.979 21.2277 141.465 21.2277C141.937 21.2277 142.336 21.3279 142.661 21.5284C142.988 21.7297 143.254 21.9944 143.462 22.3195C143.672 22.6458 143.82 23.0167 143.911 23.4335C144.001 23.8495 144.046 24.2735 144.046 24.7031C144.046 25.1318 144.003 25.555 143.921 25.9714Z" fill="#A6A6A6"/>
<path fill-rule="evenodd" clip-rule="evenodd" d="M21.9651 0C10.2666 0 0.783358 9.48286 0.783358 21.1813C0.783358 25.1828 1.89392 28.9252 3.82268 32.1179L0 43.4818L11.7271 39.7269C14.7615 41.4051 18.2513 42.3616 21.9651 42.3616C33.6628 42.3616 43.1461 32.8791 43.1461 21.1813C43.1461 9.48286 33.6628 0 21.9651 0ZM21.9651 38.9884C18.3477 38.9884 14.9796 37.9034 12.1675 36.0434L5.32407 38.235L7.54823 31.6216C5.41648 28.6858 4.15689 25.0784 4.15689 21.181C4.15689 11.3616 12.1456 3.37316 21.9651 3.37316C31.7841 3.37316 39.7729 11.3616 39.7729 21.181C39.7729 30.9999 31.7841 38.9884 21.9651 38.9884Z" fill="#A6A6A6"/>
<path fill-rule="evenodd" clip-rule="evenodd" d="M16.9967 12.4202C16.6536 11.5933 16.3908 11.5652 15.8608 11.5401C15.679 11.5313 15.4819 11.523 15.2662 11.523C14.5834 11.523 13.8754 11.7241 13.4488 12.1606C12.9296 12.6917 11.6313 13.9358 11.6313 16.4901C11.6313 19.0449 13.4919 21.5135 13.7512 21.86C14.0112 22.2062 17.38 27.5253 22.6213 29.697C26.7123 31.3916 27.927 31.2407 28.8603 31.0365C30.2184 30.74 31.9237 29.7398 32.3564 28.528C32.789 27.3153 32.789 26.276 32.6593 26.0601C32.5294 25.8433 32.1833 25.714 31.6641 25.4536C31.1449 25.194 28.5918 23.938 28.116 23.7651C27.6399 23.5921 27.1999 23.6449 26.8338 24.1512C26.3286 24.8505 25.8428 25.5691 25.4404 25.9952C25.1245 26.3296 24.6163 26.3761 24.1793 26.1904C23.6046 25.9456 21.9869 25.3818 20.0035 23.6135C18.4602 22.2376 17.418 20.538 17.115 20.018C16.8121 19.4988 17.0883 19.1888 17.3218 18.9063C17.5881 18.5838 17.8336 18.3523 18.0932 18.0495C18.3529 17.7461 18.4979 17.5846 18.671 17.2377C18.844 16.8916 18.7276 16.5343 18.5977 16.2743C18.4674 16.0141 17.428 13.4601 16.9967 12.4202Z" fill="#A6A6A6"/>
</svg>
