<svg width="555" height="585" viewBox="0 0 555 585" fill="none" xmlns="http://www.w3.org/2000/svg">
<rect width="554.5" height="585" transform="translate(0.5)" fill="#1C1651"/>
<g clip-path="url(#clip0_1467_2307)">
<path d="M153.709 367.209C152.172 364.65 147.954 362.222 143.097 362.222C136.834 362.222 133.826 364.846 133.826 368.166C133.826 372.066 138.429 373.153 143.8 373.791C153.129 374.943 161.828 377.372 161.828 388.042C161.828 398.016 153.006 402.292 143.032 402.292C133.891 402.292 126.86 399.48 123.54 391.296L130.571 387.65C132.55 392.572 137.733 394.747 143.162 394.747C148.591 394.747 153.455 392.891 153.455 388.034C153.455 383.816 149.048 382.09 143.097 381.453C133.956 380.365 125.519 377.937 125.519 367.905C125.519 358.699 134.594 354.93 142.843 354.864C149.809 354.864 157.036 356.843 160.421 363.751L153.709 367.202V367.209Z" fill="white"/>
<path d="M188.285 401.147V384.272C188.285 380.119 186.11 376.349 181.826 376.349C177.542 376.349 175.114 380.119 175.114 384.272V401.147H167.314V369.572H174.534L175.107 373.407C176.767 370.21 180.413 369.057 183.414 369.057C187.183 369.057 190.96 370.594 192.743 374.936C195.555 370.464 199.201 369.181 203.29 369.181C212.242 369.181 216.649 374.675 216.649 384.135V401.14H208.849V384.135C208.849 379.981 207.124 376.465 202.905 376.465C198.687 376.465 196.063 380.112 196.063 384.265V401.14H188.263L188.285 401.147Z" fill="white"/>
<path d="M232.002 360.75C232.002 366.825 222.796 366.825 222.796 360.75C222.796 354.676 232.002 354.676 232.002 360.75ZM223.506 369.507V401.147H231.306V369.507H223.506Z" fill="white"/>
<path d="M244.977 356.466V401.147H237.243V356.466H244.977Z" fill="white"/>
<path d="M257.379 388.172C257.894 392.072 261.279 394.884 266.774 394.884C269.651 394.884 273.421 393.797 275.211 391.941L280.198 396.863C276.871 400.314 271.442 401.974 266.65 401.974C255.785 401.974 249.326 395.261 249.326 385.164C249.326 375.066 255.85 368.673 266.071 368.673C276.291 368.673 283.199 375.19 281.989 388.172H257.379ZM274.508 381.714C273.993 377.625 270.804 375.581 266.324 375.581C262.106 375.581 258.655 377.625 257.503 381.714H274.508Z" fill="white"/>
<path d="M323.726 369.637H331.207V401.147H323.857L323.473 396.544C321.682 400.248 316.76 402.039 313.245 402.104C303.916 402.169 297.008 396.414 297.008 385.36C297.008 374.305 304.227 368.804 313.433 368.869C317.652 368.869 321.682 370.848 323.465 373.979L323.719 369.63L323.726 369.637ZM304.8 385.36C304.8 391.369 308.954 394.95 314.129 394.95C326.401 394.95 326.401 375.835 314.129 375.835C308.954 375.835 304.8 379.35 304.8 385.36Z" fill="white"/>
<path d="M343.921 369.637L344.494 373.283C346.922 369.384 350.184 368.811 353.381 368.811C356.577 368.811 359.774 370.087 361.499 371.812L357.984 378.589C356.382 377.248 354.918 376.545 352.359 376.545C348.27 376.545 344.494 378.72 344.494 384.533V401.154H336.694V369.644H343.914L343.921 369.637Z" fill="white"/>
<path d="M369.995 388.172C370.509 392.072 373.894 394.884 379.389 394.884C382.267 394.884 386.036 393.797 387.826 391.941L392.813 396.863C389.486 400.314 384.057 401.974 379.266 401.974C368.4 401.974 361.941 395.261 361.941 385.164C361.941 375.066 368.465 368.673 378.686 368.673C388.906 368.673 395.814 375.19 394.604 388.172H369.995ZM387.123 381.714C386.609 377.625 383.419 375.581 378.94 375.581C374.721 375.581 371.27 377.625 370.118 381.714H387.123Z" fill="white"/>
<path d="M424.519 369.637H432V401.147H424.65L424.266 396.544C422.475 400.248 417.553 402.039 414.038 402.104C404.709 402.169 397.801 396.414 397.801 385.36C397.801 374.305 405.02 368.804 414.226 368.869C418.445 368.869 422.475 370.848 424.258 373.979L424.512 369.63L424.519 369.637ZM405.6 385.36C405.6 391.369 409.754 394.95 414.929 394.95C427.201 394.95 427.201 375.835 414.929 375.835C409.754 375.835 405.6 379.35 405.6 385.36Z" fill="white"/>
<path d="M302.987 326.254C297.428 326.254 292.31 323.217 289.642 318.338L280.879 302.268C280.328 301.253 278.661 301.253 278.103 302.268L269.339 318.331C266.671 323.217 261.561 326.254 255.994 326.254C249.253 326.254 243.36 321.934 241.337 315.511L227.529 266.213C224.767 257.464 223.339 248.215 223.339 238.886C223.339 222.069 237.017 208.39 253.834 208.39C261.387 208.39 266.048 209.927 270.173 211.275C273.369 212.326 275.892 213.153 279.502 213.153C283.111 213.153 285.641 212.319 288.831 211.268C292.948 209.913 297.616 208.383 305.162 208.383C321.877 208.383 335.273 221.728 335.657 238.762C335.73 241.814 335.476 243.213 334.925 246.272L334.693 247.555C334.207 250.302 331.605 252.136 328.843 251.651C326.096 251.165 324.262 248.548 324.748 245.801L324.98 244.496C325.48 241.698 325.603 241.031 325.552 238.994C325.291 227.491 316.332 218.481 305.147 218.481C299.218 218.481 295.702 219.64 291.969 220.865C288.403 222.04 284.706 223.25 279.48 223.25C274.254 223.25 270.564 222.04 266.998 220.865C263.272 219.64 259.749 218.481 253.812 218.481C242.562 218.481 233.415 227.636 233.415 238.886C233.415 247.185 234.683 255.413 237.184 263.335L250.993 312.634C251.638 314.678 253.667 316.164 255.98 316.164C257.85 316.164 259.568 315.142 260.467 313.503L269.23 297.44C271.282 293.686 275.203 291.351 279.48 291.351C283.757 291.351 287.685 293.686 289.729 297.433L298.493 313.503C299.392 315.142 301.11 316.164 302.98 316.164C305.292 316.164 307.315 314.678 308.011 312.474L316.02 287.118C316.861 284.458 319.695 282.987 322.356 283.827C325.016 284.668 326.487 287.502 325.647 290.163L317.637 315.519C315.607 321.941 309.714 326.261 302.98 326.261L302.987 326.254Z" fill="#3ABDAA"/>
<path d="M289.396 280.218C261.496 280.218 244.172 264.684 244.172 239.668V234.623H263.809C266.599 234.623 268.854 236.885 268.854 239.668C268.854 242.452 266.592 244.714 263.809 244.714H254.559C257.19 266.677 277.161 270.12 289.404 270.12C305.162 270.12 322.494 261.081 325.14 243.807C325.56 241.053 328.14 239.168 330.895 239.582C333.649 240.002 335.541 242.575 335.121 245.337C332.026 265.546 312.802 280.218 289.404 280.218H289.396Z" fill="#3ABDAA"/>
<path d="M362.195 201.83C355.606 204.273 350.38 209.514 347.937 216.096C347.422 217.488 345.443 217.488 344.929 216.096C342.479 209.514 337.245 204.28 330.656 201.83C329.264 201.316 329.264 199.337 330.656 198.822C337.245 196.379 342.479 191.153 344.929 184.564C345.443 183.172 347.422 183.172 347.937 184.564C350.38 191.146 355.606 196.379 362.195 198.822C363.587 199.337 363.587 201.316 362.195 201.83Z" fill="white"/>
</g>
<defs>
<clipPath id="clip0_1467_2307">
<rect width="308.46" height="218.779" fill="white" transform="translate(123.54 183.52)"/>
</clipPath>
</defs>
</svg>
