<svg width="368" height="585" viewBox="0 0 368 585" fill="none" xmlns="http://www.w3.org/2000/svg">
<g clip-path="url(#clip0_1467_2325)">
<rect width="367" height="585" transform="translate(0.5)" fill="#1C1651"/>
<path d="M964.814 125.436C962.094 163.015 952.083 227.969 910.513 292.446C806.394 453.938 602.525 460.083 571.61 460.513C532.284 461.061 353.557 463.551 249.625 324.095C190.924 245.33 184.465 159.368 184 121.378" stroke="#3ABDAA" stroke-width="46" stroke-miterlimit="10" stroke-linecap="round"/>
<path d="M35.038 515.955V511.043H29.63V515.955H27.966V504.755H29.63V509.475H35.038V504.755H36.702V515.955H35.038ZM39.5441 515.955V504.755H46.2801V506.275H41.1921V509.507H45.7361V510.995H41.1921V514.451H46.4561V515.955H39.5441ZM47.4847 515.955L50.7007 510.243L47.6127 504.755H49.4047L52.3487 510.099L55.2927 504.755H57.1007L54.0287 510.243L57.1967 515.955H55.3887L52.3487 510.339L49.2767 515.955H47.4847ZM58.345 515.955V513.795H60.329V515.955H58.345ZM58.345 509.907V507.747H60.329V509.907H58.345ZM69.2924 514.835L69.7084 512.611H68.6364L68.2204 514.835H66.8924L67.3084 512.611H66.1404V511.379H67.5484L67.9324 509.347H66.1404V508.115H68.1724L68.5884 505.875H69.9164L69.5004 508.115H70.5724L70.9884 505.875H72.3164L71.9004 508.115H73.0684V509.347H71.6604L71.2764 511.379H73.0684V512.611H71.0364L70.6204 514.835H69.2924ZM68.8764 511.379H69.9484L70.3324 509.347H69.2604L68.8764 511.379ZM77.5646 505.219C77.5646 505.881 77.474 506.451 77.2926 506.931C77.122 507.401 76.882 507.753 76.5726 507.987C76.274 508.222 75.9646 508.393 75.6446 508.499C75.3353 508.595 74.9993 508.643 74.6366 508.643V507.011C75.3833 507.011 76.0393 506.835 76.6046 506.483C77.17 506.131 77.4526 505.635 77.4526 504.995V504.755H79.1806V515.955H77.5646V505.219ZM86.9587 516.163C85.2734 516.163 83.8921 515.614 82.8147 514.515C81.7481 513.417 81.2147 512.03 81.2147 510.355C81.2147 508.702 81.7534 507.321 82.8307 506.211C83.9187 505.102 85.2947 504.547 86.9587 504.547C88.1427 504.547 89.1721 504.835 90.0467 505.411C90.9214 505.977 91.5614 506.729 91.9667 507.667L90.5267 508.435C90.2814 507.763 89.8387 507.209 89.1987 506.771C88.5587 506.334 87.8121 506.115 86.9587 506.115C85.7854 506.115 84.8147 506.515 84.0467 507.315C83.2894 508.115 82.9107 509.129 82.9107 510.355C82.9107 511.593 83.2894 512.611 84.0467 513.411C84.8147 514.201 85.7854 514.595 86.9587 514.595C87.8334 514.595 88.6121 514.35 89.2947 513.859C89.9881 513.358 90.4574 512.681 90.7027 511.827L92.1747 512.563C91.8121 513.63 91.1614 514.499 90.2227 515.171C89.2947 515.833 88.2067 516.163 86.9587 516.163ZM96.5177 505.219C96.5177 505.881 96.4271 506.451 96.2457 506.931C96.0751 507.401 95.8351 507.753 95.5257 507.987C95.2271 508.222 94.9177 508.393 94.5977 508.499C94.2884 508.595 93.9524 508.643 93.5897 508.643V507.011C94.3364 507.011 94.9924 506.835 95.5577 506.483C96.1231 506.131 96.4057 505.635 96.4057 504.995V504.755H98.1337V515.955H96.5177V505.219ZM104.072 516.147C103.112 516.147 102.301 515.902 101.64 515.411C100.989 514.921 100.552 514.313 100.328 513.587L101.752 512.915C101.859 513.342 102.115 513.731 102.52 514.083C102.936 514.425 103.448 514.595 104.056 514.595C104.717 514.595 105.277 514.382 105.736 513.955C106.205 513.518 106.44 512.942 106.44 512.227C106.44 511.598 106.205 511.054 105.736 510.595C105.277 510.126 104.691 509.891 103.976 509.891C103.453 509.891 103.011 510.019 102.648 510.275C102.296 510.521 102.035 510.793 101.864 511.091L100.392 510.467L100.792 504.755H107.288V506.227H102.168L101.832 510.931C101.981 510.206 102.307 509.63 102.808 509.203C103.309 508.777 103.928 508.563 104.664 508.563C105.645 508.563 106.461 508.921 107.112 509.635C107.763 510.35 108.088 511.214 108.088 512.227C108.088 513.337 107.709 514.27 106.952 515.027C106.195 515.774 105.235 516.147 104.072 516.147ZM113.556 516.147C112.596 516.147 111.786 515.902 111.124 515.411C110.474 514.921 110.036 514.313 109.812 513.587L111.236 512.915C111.343 513.342 111.599 513.731 112.004 514.083C112.42 514.425 112.932 514.595 113.54 514.595C114.202 514.595 114.762 514.382 115.22 513.955C115.69 513.518 115.924 512.942 115.924 512.227C115.924 511.598 115.69 511.054 115.22 510.595C114.762 510.126 114.175 509.891 113.46 509.891C112.938 509.891 112.495 510.019 112.132 510.275C111.78 510.521 111.519 510.793 111.348 511.091L109.876 510.467L110.276 504.755H116.772V506.227H111.652L111.316 510.931C111.466 510.206 111.791 509.63 112.292 509.203C112.794 508.777 113.412 508.563 114.148 508.563C115.13 508.563 115.946 508.921 116.596 509.635C117.247 510.35 117.572 511.214 117.572 512.227C117.572 513.337 117.194 514.27 116.436 515.027C115.679 515.774 114.719 516.147 113.556 516.147ZM121.58 505.219C121.58 505.881 121.49 506.451 121.308 506.931C121.138 507.401 120.898 507.753 120.588 507.987C120.29 508.222 119.98 508.393 119.66 508.499C119.351 508.595 119.015 508.643 118.652 508.643V507.011C119.399 507.011 120.055 506.835 120.62 506.483C121.186 506.131 121.468 505.635 121.468 504.995V504.755H123.196V515.955H121.58V505.219ZM27.966 537.955V526.755H32.462C33.5287 526.755 34.3713 527.033 34.99 527.587C35.6087 528.131 35.918 528.809 35.918 529.619C35.918 530.355 35.6567 530.979 35.134 531.491C34.622 532.003 33.87 532.249 32.878 532.227C33.8273 532.259 34.5527 532.521 35.054 533.011C35.566 533.502 35.822 534.158 35.822 534.979V537.955H34.142V535.331C34.142 534.819 33.9873 534.419 33.678 534.131C33.3793 533.843 32.9313 533.699 32.334 533.699H29.614V537.955H27.966ZM29.614 532.179H32.174C32.7607 532.179 33.246 531.993 33.63 531.619C34.0247 531.246 34.222 530.771 34.222 530.195C34.222 529.63 34.0407 529.171 33.678 528.819C33.3153 528.457 32.7927 528.275 32.11 528.275H29.614V532.179ZM43.0424 538.163C41.549 538.163 40.2904 537.614 39.2664 536.515C38.2424 535.417 37.7304 534.03 37.7304 532.355C37.7304 530.713 38.2744 529.337 39.3624 528.227C40.461 527.107 41.8264 526.547 43.4584 526.547C44.621 526.547 45.629 526.814 46.4824 527.347C47.3357 527.87 47.9757 528.563 48.4024 529.427L46.9784 530.227C46.701 529.619 46.253 529.118 45.6344 528.723C45.0264 528.318 44.301 528.115 43.4584 528.115C42.3064 528.115 41.3464 528.515 40.5784 529.315C39.8104 530.115 39.4264 531.129 39.4264 532.355C39.4264 533.603 39.7997 534.622 40.5464 535.411C41.293 536.201 42.253 536.595 43.4264 536.595C44.4397 536.595 45.309 536.281 46.0344 535.651C46.7597 535.022 47.1544 534.254 47.2184 533.347V533.331H43.5384V531.843H48.8824V537.955H47.2504V533.891C47.2504 535.193 46.877 536.233 46.1304 537.011C45.3837 537.779 44.3544 538.163 43.0424 538.163ZM51.3254 537.955V526.755H55.5974C56.6107 526.755 57.4054 526.995 57.9814 527.475C58.568 527.955 58.8614 528.563 58.8614 529.299C58.8614 529.929 58.648 530.457 58.2214 530.883C57.7947 531.31 57.1387 531.523 56.2534 531.523C57.1387 531.577 57.8534 531.886 58.3974 532.451C58.952 533.006 59.2294 533.721 59.2294 534.595C59.2294 535.566 58.8934 536.371 58.2214 537.011C57.56 537.641 56.7174 537.955 55.6934 537.955H51.3254ZM52.9734 536.451H55.6294C56.1734 536.451 56.6267 536.275 56.9894 535.923C57.352 535.571 57.5334 535.129 57.5334 534.595C57.5334 534.073 57.352 533.657 56.9894 533.347C56.6374 533.038 56.184 532.883 55.6294 532.883H52.9734V536.451ZM52.9734 531.475H55.4534C55.976 531.475 56.392 531.315 56.7014 530.995C57.0107 530.675 57.1654 530.27 57.1654 529.779C57.1654 529.331 57.0054 528.969 56.6854 528.691C56.376 528.403 55.9654 528.259 55.4534 528.259H52.9734V531.475ZM60.9387 537.955V535.795H62.9227V537.955H60.9387ZM60.9387 531.907V529.747H62.9227V531.907H60.9387ZM69.2941 537.955V526.755H73.7901C74.8568 526.755 75.6995 527.033 76.3181 527.587C76.9368 528.131 77.2461 528.809 77.2461 529.619C77.2461 530.355 76.9848 530.979 76.4621 531.491C75.9501 532.003 75.1981 532.249 74.2061 532.227C75.1555 532.259 75.8808 532.521 76.3821 533.011C76.8941 533.502 77.1501 534.158 77.1501 534.979V537.955H75.4701V535.331C75.4701 534.819 75.3155 534.419 75.0061 534.131C74.7075 533.843 74.2595 533.699 73.6621 533.699H70.9421V537.955H69.2941ZM70.9421 532.179H73.5021C74.0888 532.179 74.5741 531.993 74.9581 531.619C75.3528 531.246 75.5501 530.771 75.5501 530.195C75.5501 529.63 75.3688 529.171 75.0061 528.819C74.6435 528.457 74.1208 528.275 73.4381 528.275H70.9421V532.179ZM79.2825 537.955V535.795H81.2665V537.955H79.2825ZM79.2825 531.907V529.747H81.2665V531.907H79.2825ZM83.0626 537.955V534.883L87.4626 532.147C88.3693 531.582 88.8226 530.899 88.8226 530.099C88.8226 529.566 88.636 529.102 88.2626 528.707C87.8893 528.302 87.3613 528.099 86.6786 528.099C86.092 528.099 85.6013 528.291 85.2066 528.675C84.812 529.049 84.5773 529.507 84.5026 530.051L83.0306 529.363C83.1693 528.574 83.5693 527.907 84.2306 527.363C84.9026 526.819 85.7186 526.547 86.6786 526.547C87.8626 526.547 88.796 526.894 89.4786 527.587C90.1613 528.281 90.5026 529.107 90.5026 530.067C90.5026 530.803 90.3213 531.443 89.9586 531.987C89.596 532.531 89.0253 533.027 88.2466 533.475L83.3346 536.403H90.5826V537.955H83.0626ZM96.3122 538.163C95.2029 538.163 94.2589 537.886 93.4802 537.331C92.7016 536.777 92.3122 536.03 92.3122 535.091C92.3122 534.163 92.6642 533.465 93.3682 532.995C94.0722 532.515 94.8616 532.35 95.7362 532.499L95.1122 532.259C93.6616 531.673 92.9362 530.755 92.9362 529.507C92.9362 528.633 93.2509 527.923 93.8802 527.379C94.5202 526.825 95.3202 526.547 96.2802 526.547C97.2616 526.547 98.0616 526.809 98.6802 527.331C99.3096 527.843 99.6242 528.483 99.6242 529.251C99.6242 529.902 99.3362 530.451 98.7602 530.899C98.1842 531.337 97.4856 531.449 96.6642 531.235L97.6082 531.619C99.3362 532.302 100.2 533.347 100.2 534.755C100.2 535.747 99.8429 536.563 99.1282 537.203C98.4242 537.843 97.4856 538.163 96.3122 538.163ZM93.9602 534.739C93.9602 535.305 94.1896 535.763 94.6482 536.115C95.1069 536.467 95.6616 536.643 96.3122 536.643C96.9736 536.643 97.5016 536.467 97.8962 536.115C98.3016 535.763 98.5042 535.315 98.5042 534.771C98.5042 534.003 97.9549 533.395 96.8562 532.947L96.1362 532.659C95.5709 532.723 95.0642 532.937 94.6162 533.299C94.1789 533.651 93.9602 534.131 93.9602 534.739ZM94.5682 529.475C94.5682 530.073 95.0162 530.558 95.9122 530.931L96.4242 531.139C96.8722 531.054 97.2456 530.862 97.5442 530.563C97.8536 530.254 98.0082 529.897 98.0082 529.491C98.0082 529.097 97.8536 528.755 97.5442 528.467C97.2349 528.179 96.8082 528.035 96.2642 528.035C95.7842 528.035 95.3789 528.174 95.0482 528.451C94.7282 528.729 94.5682 529.07 94.5682 529.475ZM111.105 538.163C109.612 538.163 108.353 537.614 107.329 536.515C106.305 535.417 105.793 534.03 105.793 532.355C105.793 530.713 106.337 529.337 107.425 528.227C108.524 527.107 109.889 526.547 111.521 526.547C112.684 526.547 113.692 526.814 114.545 527.347C115.398 527.87 116.038 528.563 116.465 529.427L115.041 530.227C114.764 529.619 114.316 529.118 113.697 528.723C113.089 528.318 112.364 528.115 111.521 528.115C110.369 528.115 109.409 528.515 108.641 529.315C107.873 530.115 107.489 531.129 107.489 532.355C107.489 533.603 107.862 534.622 108.609 535.411C109.356 536.201 110.316 536.595 111.489 536.595C112.502 536.595 113.372 536.281 114.097 535.651C114.822 535.022 115.217 534.254 115.281 533.347V533.331H111.601V531.843H116.945V537.955H115.313V533.891C115.313 535.193 114.94 536.233 114.193 537.011C113.446 537.779 112.417 538.163 111.105 538.163ZM118.892 537.955V535.795H120.876V537.955H118.892ZM118.892 531.907V529.747H120.876V531.907H118.892ZM122.672 537.955V534.883L127.072 532.147C127.979 531.582 128.432 530.899 128.432 530.099C128.432 529.566 128.245 529.102 127.872 528.707C127.499 528.302 126.971 528.099 126.288 528.099C125.701 528.099 125.211 528.291 124.816 528.675C124.421 529.049 124.187 529.507 124.112 530.051L122.64 529.363C122.779 528.574 123.179 527.907 123.84 527.363C124.512 526.819 125.328 526.547 126.288 526.547C127.472 526.547 128.405 526.894 129.088 527.587C129.771 528.281 130.112 529.107 130.112 530.067C130.112 530.803 129.931 531.443 129.568 531.987C129.205 532.531 128.635 533.027 127.856 533.475L122.944 536.403H130.192V537.955H122.672ZM131.938 537.955V534.883L136.338 532.147C137.244 531.582 137.698 530.899 137.698 530.099C137.698 529.566 137.511 529.102 137.138 528.707C136.764 528.302 136.236 528.099 135.554 528.099C134.967 528.099 134.476 528.291 134.082 528.675C133.687 529.049 133.452 529.507 133.378 530.051L131.906 529.363C132.044 528.574 132.444 527.907 133.106 527.363C133.778 526.819 134.594 526.547 135.554 526.547C136.738 526.547 137.671 526.894 138.354 527.587C139.036 528.281 139.378 529.107 139.378 530.067C139.378 530.803 139.196 531.443 138.834 531.987C138.471 532.531 137.9 533.027 137.122 533.475L132.21 536.403H139.458V537.955H131.938ZM145.778 537.955V526.755H150.05C151.064 526.755 151.858 526.995 152.434 527.475C153.021 527.955 153.314 528.563 153.314 529.299C153.314 529.929 153.101 530.457 152.674 530.883C152.248 531.31 151.592 531.523 150.706 531.523C151.592 531.577 152.306 531.886 152.85 532.451C153.405 533.006 153.682 533.721 153.682 534.595C153.682 535.566 153.346 536.371 152.674 537.011C152.013 537.641 151.17 537.955 150.146 537.955H145.778ZM147.426 536.451H150.082C150.626 536.451 151.08 536.275 151.442 535.923C151.805 535.571 151.986 535.129 151.986 534.595C151.986 534.073 151.805 533.657 151.442 533.347C151.09 533.038 150.637 532.883 150.082 532.883H147.426V536.451ZM147.426 531.475H149.906C150.429 531.475 150.845 531.315 151.154 530.995C151.464 530.675 151.618 530.27 151.618 529.779C151.618 529.331 151.458 528.969 151.138 528.691C150.829 528.403 150.418 528.259 149.906 528.259H147.426V531.475ZM155.392 537.955V535.795H157.376V537.955H155.392ZM155.392 531.907V529.747H157.376V531.907H155.392ZM163.156 538.163C162.047 538.163 161.103 537.886 160.324 537.331C159.545 536.777 159.156 536.03 159.156 535.091C159.156 534.163 159.508 533.465 160.212 532.995C160.916 532.515 161.705 532.35 162.58 532.499L161.956 532.259C160.505 531.673 159.78 530.755 159.78 529.507C159.78 528.633 160.095 527.923 160.724 527.379C161.364 526.825 162.164 526.547 163.124 526.547C164.105 526.547 164.905 526.809 165.524 527.331C166.153 527.843 166.468 528.483 166.468 529.251C166.468 529.902 166.18 530.451 165.604 530.899C165.028 531.337 164.329 531.449 163.508 531.235L164.452 531.619C166.18 532.302 167.044 533.347 167.044 534.755C167.044 535.747 166.687 536.563 165.972 537.203C165.268 537.843 164.329 538.163 163.156 538.163ZM160.804 534.739C160.804 535.305 161.033 535.763 161.492 536.115C161.951 536.467 162.505 536.643 163.156 536.643C163.817 536.643 164.345 536.467 164.74 536.115C165.145 535.763 165.348 535.315 165.348 534.771C165.348 534.003 164.799 533.395 163.7 532.947L162.98 532.659C162.415 532.723 161.908 532.937 161.46 533.299C161.023 533.651 160.804 534.131 160.804 534.739ZM161.412 529.475C161.412 530.073 161.86 530.558 162.756 530.931L163.268 531.139C163.716 531.054 164.089 530.862 164.388 530.563C164.697 530.254 164.852 529.897 164.852 529.491C164.852 529.097 164.697 528.755 164.388 528.467C164.079 528.179 163.652 528.035 163.108 528.035C162.628 528.035 162.223 528.174 161.892 528.451C161.572 528.729 161.412 529.07 161.412 529.475ZM168.781 537.955V534.883L173.181 532.147C174.088 531.582 174.541 530.899 174.541 530.099C174.541 529.566 174.355 529.102 173.981 528.707C173.608 528.302 173.08 528.099 172.397 528.099C171.811 528.099 171.32 528.291 170.925 528.675C170.531 529.049 170.296 529.507 170.221 530.051L168.749 529.363C168.888 528.574 169.288 527.907 169.949 527.363C170.621 526.819 171.437 526.547 172.397 526.547C173.581 526.547 174.515 526.894 175.197 527.587C175.88 528.281 176.221 529.107 176.221 530.067C176.221 530.803 176.04 531.443 175.677 531.987C175.315 532.531 174.744 533.027 173.965 533.475L169.053 536.403H176.301V537.955H168.781ZM32.99 560.163C31.3047 560.163 29.9233 559.614 28.846 558.515C27.7793 557.417 27.246 556.03 27.246 554.355C27.246 552.702 27.7847 551.321 28.862 550.211C29.95 549.102 31.326 548.547 32.99 548.547C34.174 548.547 35.2033 548.835 36.078 549.411C36.9527 549.977 37.5927 550.729 37.998 551.667L36.558 552.435C36.3127 551.763 35.87 551.209 35.23 550.771C34.59 550.334 33.8433 550.115 32.99 550.115C31.8167 550.115 30.846 550.515 30.078 551.315C29.3207 552.115 28.942 553.129 28.942 554.355C28.942 555.593 29.3207 556.611 30.078 557.411C30.846 558.201 31.8167 558.595 32.99 558.595C33.8647 558.595 34.6433 558.35 35.326 557.859C36.0193 557.358 36.4887 556.681 36.734 555.827L38.206 556.563C37.8433 557.63 37.1927 558.499 36.254 559.171C35.326 559.833 34.238 560.163 32.99 560.163ZM44.821 559.955L41.957 549.011V559.955H40.341V548.755H43.509L46.357 559.699L49.269 548.755H52.437V559.955H50.837V549.011L47.957 559.955H44.821ZM58.3505 559.955V555.539H57.6305L54.2385 548.755H56.0145L59.1985 555.283L62.2865 548.755H64.1265L60.7025 555.539H60.0145V559.955H58.3505ZM65.9347 559.955V548.755H67.5827V557.715C67.5827 556.297 67.7214 555.193 67.9987 554.403C68.2761 553.614 68.8414 552.739 69.6947 551.779L72.4147 548.755H74.4467L70.5107 553.203L74.6387 559.955H72.6867L69.3747 554.531C68.6067 555.491 68.1161 556.339 67.9027 557.075C67.6894 557.811 67.5827 558.771 67.5827 559.955H65.9347ZM75.7512 559.955V557.795H77.7352V559.955H75.7512ZM75.7512 553.907V551.747H77.7352V553.907H75.7512ZM89.1306 560.163C87.4453 560.163 86.064 559.614 84.9866 558.515C83.92 557.417 83.3866 556.03 83.3866 554.355C83.3866 552.702 83.9253 551.321 85.0026 550.211C86.0906 549.102 87.4666 548.547 89.1306 548.547C90.3146 548.547 91.344 548.835 92.2186 549.411C93.0933 549.977 93.7333 550.729 94.1386 551.667L92.6986 552.435C92.4533 551.763 92.0106 551.209 91.3706 550.771C90.7306 550.334 89.984 550.115 89.1306 550.115C87.9573 550.115 86.9866 550.515 86.2186 551.315C85.4613 552.115 85.0826 553.129 85.0826 554.355C85.0826 555.593 85.4613 556.611 86.2186 557.411C86.9866 558.201 87.9573 558.595 89.1306 558.595C90.0053 558.595 90.784 558.35 91.4666 557.859C92.16 557.358 92.6293 556.681 92.8746 555.827L94.3466 556.563C93.984 557.63 93.3333 558.499 92.3946 559.171C91.4666 559.833 90.3786 560.163 89.1306 560.163ZM95.9856 559.955V557.795H97.9696V559.955H95.9856ZM95.9856 553.907V551.747H97.9696V553.907H95.9856ZM102.518 549.219C102.518 549.881 102.427 550.451 102.246 550.931C102.075 551.401 101.835 551.753 101.526 551.987C101.227 552.222 100.918 552.393 100.598 552.499C100.288 552.595 99.9524 552.643 99.5897 552.643V551.011C100.336 551.011 100.992 550.835 101.558 550.483C102.123 550.131 102.406 549.635 102.406 548.995V548.755H104.134V559.955H102.518V549.219ZM111.576 559.923C111.128 560.083 110.669 560.163 110.2 560.163C109.731 560.163 109.267 560.083 108.808 559.923C108.36 559.763 107.949 559.534 107.576 559.235C107.203 558.937 106.899 558.542 106.664 558.051C106.44 557.55 106.328 556.99 106.328 556.371V552.339C106.328 551.721 106.44 551.166 106.664 550.675C106.899 550.174 107.203 549.774 107.576 549.475C107.949 549.177 108.36 548.947 108.808 548.787C109.267 548.627 109.731 548.547 110.2 548.547C110.669 548.547 111.128 548.627 111.576 548.787C112.035 548.947 112.451 549.177 112.824 549.475C113.197 549.774 113.496 550.174 113.72 550.675C113.955 551.166 114.072 551.721 114.072 552.339V556.371C114.072 556.99 113.955 557.55 113.72 558.051C113.496 558.542 113.197 558.937 112.824 559.235C112.451 559.534 112.035 559.763 111.576 559.923ZM107.944 556.291C107.944 557.006 108.157 557.571 108.584 557.987C109.021 558.393 109.56 558.595 110.2 558.595C110.84 558.595 111.379 558.393 111.816 557.987C112.253 557.571 112.472 557.006 112.472 556.291V552.419C112.472 551.715 112.253 551.155 111.816 550.739C111.379 550.323 110.84 550.115 110.2 550.115C109.571 550.115 109.037 550.323 108.6 550.739C108.163 551.155 107.944 551.715 107.944 552.419V556.291ZM121.06 559.923C120.612 560.083 120.154 560.163 119.684 560.163C119.215 560.163 118.751 560.083 118.292 559.923C117.844 559.763 117.434 559.534 117.06 559.235C116.687 558.937 116.383 558.542 116.148 558.051C115.924 557.55 115.812 556.99 115.812 556.371V552.339C115.812 551.721 115.924 551.166 116.148 550.675C116.383 550.174 116.687 549.774 117.06 549.475C117.434 549.177 117.844 548.947 118.292 548.787C118.751 548.627 119.215 548.547 119.684 548.547C120.154 548.547 120.612 548.627 121.06 548.787C121.519 548.947 121.935 549.177 122.308 549.475C122.682 549.774 122.98 550.174 123.204 550.675C123.439 551.166 123.556 551.721 123.556 552.339V556.371C123.556 556.99 123.439 557.55 123.204 558.051C122.98 558.542 122.682 558.937 122.308 559.235C121.935 559.534 121.519 559.763 121.06 559.923ZM117.428 556.291C117.428 557.006 117.642 557.571 118.068 557.987C118.506 558.393 119.044 558.595 119.684 558.595C120.324 558.595 120.863 558.393 121.3 557.987C121.738 557.571 121.956 557.006 121.956 556.291V552.419C121.956 551.715 121.738 551.155 121.3 550.739C120.863 550.323 120.324 550.115 119.684 550.115C119.055 550.115 118.522 550.323 118.084 550.739C117.647 551.155 117.428 551.715 117.428 552.419V556.291ZM134.368 559.955L131.504 549.011V559.955H129.888V548.755H133.056L135.904 559.699L138.816 548.755H141.984V559.955H140.384V549.011L137.504 559.955H134.368ZM144.329 559.955V557.795H146.313V559.955H144.329ZM144.329 553.907V551.747H146.313V553.907H144.329ZM150.861 549.219C150.861 549.881 150.771 550.451 150.589 550.931C150.419 551.401 150.179 551.753 149.869 551.987C149.571 552.222 149.261 552.393 148.941 552.499C148.632 552.595 148.296 552.643 147.933 552.643V551.011C148.68 551.011 149.336 550.835 149.901 550.483C150.467 550.131 150.749 549.635 150.749 548.995V548.755H152.477V559.955H150.861V549.219ZM159.92 559.923C159.472 560.083 159.013 560.163 158.544 560.163C158.074 560.163 157.61 560.083 157.152 559.923C156.704 559.763 156.293 559.534 155.92 559.235C155.546 558.937 155.242 558.542 155.008 558.051C154.784 557.55 154.672 556.99 154.672 556.371V552.339C154.672 551.721 154.784 551.166 155.008 550.675C155.242 550.174 155.546 549.774 155.92 549.475C156.293 549.177 156.704 548.947 157.152 548.787C157.61 548.627 158.074 548.547 158.544 548.547C159.013 548.547 159.472 548.627 159.92 548.787C160.378 548.947 160.794 549.177 161.168 549.475C161.541 549.774 161.84 550.174 162.064 550.675C162.298 551.166 162.416 551.721 162.416 552.339V556.371C162.416 556.99 162.298 557.55 162.064 558.051C161.84 558.542 161.541 558.937 161.168 559.235C160.794 559.534 160.378 559.763 159.92 559.923ZM156.288 556.291C156.288 557.006 156.501 557.571 156.928 557.987C157.365 558.393 157.904 558.595 158.544 558.595C159.184 558.595 159.722 558.393 160.16 557.987C160.597 557.571 160.816 557.006 160.816 556.291V552.419C160.816 551.715 160.597 551.155 160.16 550.739C159.722 550.323 159.184 550.115 158.544 550.115C157.914 550.115 157.381 550.323 156.944 550.739C156.506 551.155 156.288 551.715 156.288 552.419V556.291ZM169.404 559.923C168.956 560.083 168.497 560.163 168.028 560.163C167.559 560.163 167.095 560.083 166.636 559.923C166.188 559.763 165.777 559.534 165.404 559.235C165.031 558.937 164.727 558.542 164.492 558.051C164.268 557.55 164.156 556.99 164.156 556.371V552.339C164.156 551.721 164.268 551.166 164.492 550.675C164.727 550.174 165.031 549.774 165.404 549.475C165.777 549.177 166.188 548.947 166.636 548.787C167.095 548.627 167.559 548.547 168.028 548.547C168.497 548.547 168.956 548.627 169.404 548.787C169.863 548.947 170.279 549.177 170.652 549.475C171.025 549.774 171.324 550.174 171.548 550.675C171.783 551.166 171.9 551.721 171.9 552.339V556.371C171.9 556.99 171.783 557.55 171.548 558.051C171.324 558.542 171.025 558.937 170.652 559.235C170.279 559.534 169.863 559.763 169.404 559.923ZM165.772 556.291C165.772 557.006 165.985 557.571 166.412 557.987C166.849 558.393 167.388 558.595 168.028 558.595C168.668 558.595 169.207 558.393 169.644 557.987C170.081 557.571 170.3 557.006 170.3 556.291V552.419C170.3 551.715 170.081 551.155 169.644 550.739C169.207 550.323 168.668 550.115 168.028 550.115C167.399 550.115 166.865 550.323 166.428 550.739C165.991 551.155 165.772 551.715 165.772 552.419V556.291ZM181.304 559.955V555.539H180.584L177.192 548.755H178.968L182.152 555.283L185.24 548.755H187.08L183.656 555.539H182.968V559.955H181.304ZM188.392 559.955V557.795H190.376V559.955H188.392ZM188.392 553.907V551.747H190.376V553.907H188.392ZM192.172 559.955V556.883L196.572 554.147C197.479 553.582 197.932 552.899 197.932 552.099C197.932 551.566 197.745 551.102 197.372 550.707C196.999 550.302 196.471 550.099 195.788 550.099C195.201 550.099 194.711 550.291 194.316 550.675C193.921 551.049 193.687 551.507 193.612 552.051L192.14 551.363C192.279 550.574 192.679 549.907 193.34 549.363C194.012 548.819 194.828 548.547 195.788 548.547C196.972 548.547 197.905 548.894 198.588 549.587C199.271 550.281 199.612 551.107 199.612 552.067C199.612 552.803 199.431 553.443 199.068 553.987C198.705 554.531 198.135 555.027 197.356 555.475L192.444 558.403H199.692V559.955H192.172ZM205.971 559.955V557.731H201.043V554.019L204.547 548.755H206.499L201.315 556.163H205.971V553.715H207.571V556.163H209.075V557.731H207.571V559.955H205.971ZM215.091 559.955V548.755H216.739V557.715C216.739 556.297 216.878 555.193 217.155 554.403C217.432 553.614 217.998 552.739 218.851 551.779L221.571 548.755H223.603L219.667 553.203L223.795 559.955H221.843L218.531 554.531C217.763 555.491 217.272 556.339 217.059 557.075C216.846 557.811 216.739 558.771 216.739 559.955H215.091ZM224.907 559.955V557.795H226.891V559.955H224.907ZM224.907 553.907V551.747H226.891V553.907H224.907ZM233.44 559.955V557.731H228.512V554.019L232.016 548.755H233.968L228.784 556.163H233.44V553.715H235.04V556.163H236.544V557.731H235.04V559.955H233.44ZM239.83 549.219C239.83 549.881 239.74 550.451 239.558 550.931C239.388 551.401 239.148 551.753 238.838 551.987C238.54 552.222 238.23 552.393 237.91 552.499C237.601 552.595 237.265 552.643 236.902 552.643V551.011C237.649 551.011 238.305 550.835 238.87 550.483C239.436 550.131 239.718 549.635 239.718 548.995V548.755H241.446V559.955H239.83V549.219Z" fill="white"/>
<path d="M28.9143 48.3278V28.0768H35.9153C38.9626 28.0768 41.4313 29.0507 43.3214 30.9987C45.2308 32.9466 46.1855 35.3478 46.1855 38.2023C46.1855 41.211 45.2501 43.6507 43.3793 45.5215C41.5084 47.3924 39.0205 48.3278 35.9153 48.3278H28.9143ZM32.6752 44.8851H35.5392C37.5836 44.8851 39.223 44.3065 40.4573 43.1493C41.6917 41.9728 42.3088 40.3238 42.3088 38.2023C42.3088 36.1579 41.682 34.5378 40.4284 33.342C39.194 32.127 37.5643 31.5194 35.5392 31.5194H32.6752V44.8851ZM55.6693 48.7038C53.4706 48.7038 51.648 47.9806 50.2015 46.5341C48.755 45.0876 48.0318 43.1686 48.0318 40.777C48.0318 38.5205 48.755 36.6593 50.2015 35.1935C51.648 33.7085 53.4996 32.9659 55.7561 32.9659C57.9741 32.9659 59.7484 33.6795 61.0792 35.1067C62.4293 36.534 63.1043 38.2408 63.1043 40.2274C63.1043 40.9795 63.0465 41.6449 62.9307 42.2235H51.6191C51.8698 43.2843 52.3713 44.104 53.1235 44.6826C53.8949 45.2612 54.8014 45.5505 55.8429 45.5505C56.6336 45.5505 57.3762 45.3769 58.0705 45.0297C58.7648 44.6633 59.2759 44.2197 59.6038 43.699L62.2364 45.4926C61.6192 46.457 60.7417 47.2381 59.6038 47.8359C58.4852 48.4145 57.1737 48.7038 55.6693 48.7038ZM51.648 39.3305H59.6038C59.5459 38.4433 59.1602 37.6719 58.4466 37.0161C57.733 36.3604 56.8361 36.0325 55.7561 36.0325C54.7146 36.0325 53.8274 36.3315 53.0945 36.9293C52.3809 37.5272 51.8988 38.3276 51.648 39.3305ZM72.2815 48.7038C70.0828 48.7038 68.2602 47.9806 66.8137 46.5341C65.3672 45.0876 64.6439 43.1686 64.6439 40.777C64.6439 38.5205 65.3672 36.6593 66.8137 35.1935C68.2602 33.7085 70.1117 32.9659 72.3682 32.9659C74.5862 32.9659 76.3606 33.6795 77.6914 35.1067C79.0414 36.534 79.7165 38.2408 79.7165 40.2274C79.7165 40.9795 79.6586 41.6449 79.5429 42.2235H68.2313C68.482 43.2843 68.9834 44.104 69.7356 44.6826C70.5071 45.2612 71.4136 45.5505 72.455 45.5505C73.2458 45.5505 73.9883 45.3769 74.6826 45.0297C75.377 44.6633 75.8881 44.2197 76.2159 43.699L78.8486 45.4926C78.2314 46.457 77.3538 47.2381 76.2159 47.8359C75.0973 48.4145 73.7858 48.7038 72.2815 48.7038ZM68.2602 39.3305H76.2159C76.1581 38.4433 75.7723 37.6719 75.0587 37.0161C74.3451 36.3604 73.4483 36.0325 72.3682 36.0325C71.3268 36.0325 70.4396 36.3315 69.7067 36.9293C68.9931 37.5272 68.5109 38.3276 68.2602 39.3305ZM90.0508 36.2639C88.855 36.2639 87.8521 36.6979 87.0421 37.5658C86.2513 38.4337 85.8559 39.5234 85.8559 40.8349C85.8559 42.2042 86.261 43.3132 87.071 44.1618C87.9003 44.9912 88.9032 45.4058 90.0797 45.4058C91.2755 45.4058 92.2688 44.9815 93.0595 44.1329C93.8696 43.2843 94.2746 42.185 94.2746 40.8349C94.2746 39.4655 93.8696 38.3662 93.0595 37.5369C92.2688 36.6883 91.2659 36.2639 90.0508 36.2639ZM82.4133 54.4031V33.342H86.0295V38.8966C86.1645 37.0065 86.7238 35.5503 87.7075 34.5281C88.7104 33.4867 90.0122 32.9659 91.613 32.9659C93.4453 32.9659 94.9593 33.7181 96.155 35.2225C97.3701 36.7268 97.9776 38.5976 97.9776 40.8349C97.9776 43.1493 97.3797 45.0394 96.184 46.5052C95.0075 47.971 93.4838 48.7038 91.613 48.7038C90.0894 48.7038 88.8068 48.2024 87.7653 47.1995C86.7431 46.1966 86.1645 44.8079 86.0295 43.0336V54.4031H82.4133ZM28.3646 78.3278V74.8272H32.2412V61.5484H28.3646V58.0768H39.8787V61.5484H36.0021V74.8272H39.8787V78.3278H28.3646ZM43.6516 78.3278V63.342H47.2679V68.289C47.2679 66.669 47.7114 65.3768 48.5986 64.4124C49.5051 63.4481 50.643 62.9659 52.0124 62.9659C53.5939 62.9659 54.8186 63.477 55.6865 64.4992C56.5737 65.5021 57.0173 66.7365 57.0173 68.2023V78.3278H53.401V69.4752C53.401 68.588 53.1117 67.8647 52.5331 67.3054C51.9738 66.7268 51.2602 66.4375 50.3923 66.4375C49.4665 66.4375 48.7144 66.7365 48.1358 67.3344C47.5572 67.9322 47.2679 68.6941 47.2679 69.6198V78.3278H43.6516ZM66.0396 78.7038C64.1881 78.7038 62.6355 77.9517 61.3819 76.4473C60.1475 74.9429 59.5303 73.0721 59.5303 70.8349C59.5303 68.5205 60.1475 66.6304 61.3819 65.1646C62.6162 63.6988 64.1688 62.9659 66.0396 62.9659C67.5632 62.9659 68.8072 63.4674 69.7716 64.4703C70.7552 65.4539 71.3241 66.8425 71.4784 68.6362V58.0768H75.0947V78.3278H71.4784V72.7732C71.3241 74.6826 70.7745 76.1484 69.8294 77.1706C68.9037 78.1928 67.6404 78.7038 66.0396 78.7038ZM63.2044 70.8349C63.2044 72.2042 63.6095 73.3132 64.4195 74.1618C65.2295 74.9912 66.2421 75.4058 67.4572 75.4058C68.6336 75.4058 69.6269 74.9719 70.4369 74.104C71.247 73.2361 71.652 72.1464 71.652 70.8349C71.652 69.4655 71.2373 68.3662 70.408 67.5369C69.598 66.6883 68.6047 66.2639 67.4282 66.2639C66.2324 66.2639 65.2295 66.6979 64.4195 67.5658C63.6095 68.4144 63.2044 69.5041 63.2044 70.8349ZM78.4795 78.3278V63.342H82.0957V78.3278H78.4795ZM78.4216 61.4326V57.4982H82.1536V61.4326H78.4216ZM91.2451 84.7791C89.085 84.7791 87.3588 84.4416 86.0666 83.7666C84.7744 83.1109 84.1283 82.2044 84.1283 81.0472C84.1283 80.1986 84.4947 79.4946 85.2276 78.9353C85.9605 78.3953 87.0599 78.1252 88.5256 78.1252H89.0464C86.6163 77.9517 85.4012 77.1898 85.4012 75.8398C85.4012 75.2226 85.7194 74.7019 86.3559 74.2776C86.9924 73.834 87.9278 73.6025 89.1621 73.5832C87.8506 73.2554 86.8284 72.6285 86.0955 71.7028C85.3626 70.777 84.9962 69.668 84.9962 68.3758C84.9962 66.775 85.5748 65.4732 86.732 64.4703C87.8892 63.4674 89.3646 62.9659 91.1583 62.9659C92.3348 62.9659 93.4727 63.2167 94.572 63.7181L98.9983 63.1106V66.4954L93.1834 66.5243C94.5527 66.5436 95.5556 66.8715 96.1921 67.5079C96.8478 68.1444 97.1757 68.8484 97.1757 69.6198C97.1757 70.9506 96.5875 71.9824 95.411 72.7153C94.2345 73.4482 92.8169 73.8147 91.1583 73.8147C90.5218 73.8147 89.9336 73.7568 89.3935 73.6411C89.1235 73.7954 88.9885 74.0365 88.9885 74.3643C88.9885 74.9429 89.4418 75.2322 90.3482 75.2322H93.8198C95.4399 75.2322 96.7418 75.6276 97.7254 76.4184C98.7283 77.2091 99.2297 78.2506 99.2297 79.5428C99.2297 80.4879 99.008 81.3075 98.5644 82.0019C98.1208 82.6962 97.5132 83.2362 96.7418 83.6219C95.9703 84.027 95.1217 84.3163 94.1959 84.4898C93.2895 84.6827 92.3058 84.7791 91.2451 84.7791ZM87.3684 79.8321C87.3684 81.105 88.6607 81.7415 91.2451 81.7415C94.1188 81.7415 95.5556 81.0761 95.5556 79.7453C95.5556 79.2824 95.3724 78.916 95.006 78.646C94.6588 78.376 94.1284 78.241 93.4148 78.241H89.5093C88.8535 78.241 88.3328 78.3856 87.947 78.6749C87.5613 78.9835 87.3684 79.3692 87.3684 79.8321ZM88.5835 68.3758C88.5835 69.2245 88.8149 69.8898 89.2778 70.372C89.7407 70.8542 90.3675 71.0953 91.1583 71.0953C91.949 71.0953 92.5758 70.8542 93.0387 70.372C93.5016 69.8898 93.733 69.2245 93.733 68.3758C93.733 67.6237 93.492 66.9872 93.0098 66.4665C92.5469 65.9457 91.9297 65.6853 91.1583 65.6853C90.3868 65.6853 89.76 65.9457 89.2778 66.4665C88.8149 66.9872 88.5835 67.6237 88.5835 68.3758ZM108.284 78.7038C105.95 78.7038 104.022 77.9613 102.498 76.4762C100.994 74.9912 100.241 73.1107 100.241 70.8349C100.241 68.5591 100.994 66.6786 102.498 65.1935C104.022 63.7085 105.95 62.9659 108.284 62.9659C110.54 62.9659 112.44 63.7181 113.983 65.2225C115.545 66.7075 116.326 68.5783 116.326 70.8349C116.326 73.0914 115.545 74.9719 113.983 76.4762C112.44 77.9613 110.54 78.7038 108.284 78.7038ZM103.916 70.8349C103.916 72.2042 104.33 73.3132 105.159 74.1618C105.989 74.9912 107.03 75.4058 108.284 75.4058C109.538 75.4058 110.579 74.9912 111.408 74.1618C112.238 73.3132 112.652 72.2042 112.652 70.8349C112.652 69.5041 112.228 68.4144 111.379 67.5658C110.55 66.6979 109.518 66.2639 108.284 66.2639C107.05 66.2639 106.008 66.6979 105.159 67.5658C104.33 68.4144 103.916 69.5041 103.916 70.8349Z" fill="white"/>
</g>
<defs>
<clipPath id="clip0_1467_2325">
<rect width="367" height="585" fill="white" transform="translate(0.5)"/>
</clipPath>
</defs>
</svg>
