<svg width="717" height="226" viewBox="0 0 717 226" fill="none" xmlns="http://www.w3.org/2000/svg">
<g clip-path="url(#clip0_1467_2341)">
<rect width="716" height="226" transform="translate(0.5)" fill="#1C1651"/>
<g clip-path="url(#clip1_1467_2341)">
<path d="M284.022 96.6686C282.556 94.2073 278.523 91.8692 273.881 91.8692C267.894 91.8692 265.023 94.3918 265.023 97.5916C265.023 101.345 269.421 102.392 274.552 103.007C283.472 104.114 291.78 106.453 291.78 116.73C291.78 126.329 283.35 130.452 273.82 130.452C265.084 130.452 258.363 127.744 255.187 119.867L261.906 116.36C263.8 121.099 268.749 123.19 273.942 123.19C279.012 123.19 283.778 121.406 283.778 116.729C283.778 112.668 279.562 111.007 273.881 110.391C265.145 109.345 257.08 107.007 257.08 97.3458C257.08 88.4844 265.755 84.8538 273.636 84.7925C280.295 84.7925 287.199 86.6997 290.437 93.3456L284.022 96.6686Z" fill="white"/>
<path d="M317.07 129.344V113.099C317.07 109.099 314.993 105.468 310.899 105.468C306.868 105.468 304.485 109.099 304.485 113.099V129.344H297.031V98.9455H303.935L304.485 102.638C306.073 99.5608 309.556 98.4534 312.426 98.4534C316.031 98.4534 319.635 99.9304 321.346 104.114C324.035 99.8072 327.516 98.5766 331.426 98.5766C339.98 98.5766 344.195 103.869 344.195 112.976V129.344H336.742V112.976C336.742 108.976 335.093 105.591 331.06 105.591C327.028 105.591 324.524 109.099 324.524 113.099V129.344H317.07Z" fill="white"/>
<path d="M358.855 90.4535C358.855 96.2996 350.058 96.2996 350.058 90.4535C350.058 84.608 358.855 84.608 358.855 90.4535ZM350.729 98.884V129.344H358.183V98.884H350.729Z" fill="white"/>
<path d="M371.256 86.3308V129.344H363.863V86.3308H371.256Z" fill="white"/>
<path d="M383.106 116.853C383.595 120.606 386.834 123.314 392.087 123.314C394.836 123.314 398.44 122.268 400.151 120.483L404.917 125.222C401.74 128.544 396.547 130.144 391.965 130.144C381.579 130.144 375.409 123.683 375.409 113.96C375.409 104.73 381.64 98.0845 391.415 98.0845C401.495 98.0845 407.788 104.361 406.627 116.853L383.106 116.853ZM399.48 110.637C398.991 106.699 395.936 104.73 391.66 104.73C387.627 104.73 384.328 106.699 383.229 110.637H399.48Z" fill="white"/>
<path d="M446.517 99.0073H453.664V129.344H446.639L446.273 124.914C444.562 128.482 439.857 130.206 436.497 130.267C427.579 130.328 420.98 124.791 420.98 114.145C420.98 103.684 427.884 98.2069 436.681 98.2688C440.713 98.2688 444.562 100.176 446.273 103.191L446.517 99.0073ZM428.433 114.145C428.433 119.929 432.405 123.375 437.353 123.375C449.083 123.375 449.083 104.976 437.353 104.976C432.405 104.976 428.433 108.36 428.433 114.145Z" fill="white"/>
<path d="M465.82 99.0074L466.37 102.515C468.691 98.7611 471.807 98.207 474.861 98.207C477.978 98.207 480.97 99.4383 482.62 101.1L479.26 107.622C477.733 106.33 476.328 105.653 473.884 105.653C469.974 105.653 466.37 107.745 466.37 113.345V129.344H458.916V99.0074H465.82Z" fill="white"/>
<path d="M490.744 116.853C491.233 120.606 494.471 123.314 499.725 123.314C502.474 123.314 506.078 122.268 507.789 120.483L512.555 125.222C509.377 128.544 504.185 130.144 499.603 130.144C489.217 130.144 483.047 123.683 483.047 113.96C483.047 104.73 489.277 98.0845 499.053 98.0845C509.133 98.0845 515.425 104.361 514.264 116.853L490.744 116.853ZM507.117 110.637C506.628 106.699 503.574 104.73 499.298 104.73C495.265 104.73 491.966 106.699 490.867 110.637H507.117Z" fill="white"/>
<path d="M542.853 99.0073H550V129.344H542.975L542.609 124.914C540.898 128.482 536.193 130.206 532.833 130.267C523.915 130.328 517.316 124.791 517.316 114.145C517.316 103.684 524.22 98.2069 533.017 98.2688C537.049 98.2688 540.898 100.176 542.609 103.191L542.853 99.0073ZM524.769 114.145C524.769 119.929 528.741 123.375 533.689 123.375C545.419 123.375 545.419 104.976 533.689 104.976C528.741 104.976 524.769 108.36 524.769 114.145Z" fill="white"/>
<path d="M216.201 144C212.835 144 209.74 142.15 208.126 139.174L202.823 129.379C202.488 128.762 201.478 128.759 201.142 129.38L195.84 139.172C194.227 142.15 191.133 144 187.764 144C183.686 144 180.121 141.369 178.893 137.452L170.535 107.404C168.863 102.072 168 96.4355 168 90.7474C168 80.4973 176.278 72.1587 186.452 72.1587C191.021 72.1587 193.845 73.0943 196.337 73.9193C198.271 74.5599 199.8 75.0658 201.982 75.0658C204.167 75.0658 205.695 74.5599 207.629 73.9187C210.122 73.0937 212.945 72.1587 217.511 72.1587C227.624 72.1587 235.73 80.293 235.964 90.6771C236.006 92.5369 235.854 93.3883 235.523 95.2541L235.384 96.0377C235.091 97.7112 233.512 98.8295 231.845 98.5326C230.184 98.2376 229.075 96.6416 229.368 94.9681L229.509 94.1695C229.813 92.4642 229.885 92.0586 229.857 90.8165C229.699 83.8052 224.276 78.3119 217.511 78.3119C213.923 78.3119 211.793 79.0173 209.538 79.7642C207.379 80.4793 205.145 81.219 201.982 81.219C198.821 81.219 196.588 80.4799 194.429 79.7648C192.173 79.0173 190.042 78.3119 186.452 78.3119C179.646 78.3119 174.109 83.8906 174.109 90.7474C174.109 95.8064 174.876 100.82 176.389 105.648L184.747 135.696C185.14 136.944 186.364 137.847 187.764 137.847C188.896 137.847 189.936 137.226 190.478 136.225L195.78 126.433C197.02 124.145 199.395 122.724 201.982 122.724C204.569 122.724 206.945 124.145 208.185 126.432L213.488 136.226C214.03 137.225 215.07 137.847 216.201 137.847C217.6 137.847 218.824 136.943 219.247 135.598L224.092 120.144C224.6 118.523 226.315 117.627 227.925 118.137C229.533 118.649 230.425 120.377 229.917 121.998L225.072 137.452C223.843 141.369 220.278 144 216.201 144Z" fill="#38BA9B"/>
<path d="M207.977 115.94C191.095 115.94 180.608 106.47 180.608 91.225V88.1484H192.491C194.178 88.1484 195.545 89.5257 195.545 91.225C195.545 92.9244 194.178 94.3016 192.491 94.3016H186.893C188.484 107.69 200.571 109.787 207.977 109.787C217.512 109.787 228.003 104.278 229.601 93.7482C229.858 92.0687 231.425 90.9222 233.083 91.1722C234.751 91.4287 235.895 92.9989 235.641 94.6784C233.77 106.998 222.136 115.94 207.977 115.94Z" fill="#38BA9B"/>
<path d="M252.031 68.1591C248.045 69.6502 244.882 72.8404 243.404 76.8522C243.091 77.7009 241.897 77.7013 241.584 76.8528C240.103 72.8408 236.934 69.6504 232.946 68.1592C232.104 67.844 232.104 66.6402 232.947 66.3254C236.935 64.8365 240.103 61.6502 241.584 57.6363C241.897 56.7876 243.092 56.788 243.404 57.6369C244.882 61.6506 248.045 64.8367 252.03 66.3254C252.873 66.6403 252.873 67.8438 252.031 68.1591Z" fill="white"/>
</g>
<path d="M37.7972 225.551C37.6061 222.91 36.9027 218.346 33.9822 213.816C26.6672 202.469 12.3442 202.037 10.1723 202.007C7.40939 201.968 -5.14719 201.793 -12.449 211.592C-16.5731 217.126 -17.0269 223.166 -17.0596 225.836" fill="#1C1651"/>
<path d="M37.7972 225.551C37.6061 222.91 36.9027 218.346 33.9822 213.816C26.6672 202.469 12.3442 202.037 10.1723 202.007C7.40939 201.968 -5.14719 201.793 -12.449 211.592C-16.5731 217.126 -17.0269 223.166 -17.0596 225.836" stroke="#38BA9B" stroke-width="6.77042" stroke-miterlimit="10" stroke-linecap="round"/>
<path d="M93.1741 225.551C92.983 222.91 92.2797 218.346 89.3591 213.816C82.0442 202.469 67.7212 202.037 65.5493 202.007C62.7863 201.968 50.2298 201.793 42.9279 211.592C38.8038 217.126 38.3501 223.166 38.3174 225.836" fill="#1C1651"/>
<path d="M93.1741 225.551C92.983 222.91 92.2797 218.346 89.3591 213.816C82.0442 202.469 67.7212 202.037 65.5493 202.007C62.7863 201.968 50.2298 201.793 42.9279 211.592C38.8038 217.126 38.3501 223.166 38.3174 225.836" stroke="#E8E8E8" stroke-width="6.77042" stroke-miterlimit="10" stroke-linecap="round"/>
<path d="M148.552 225.551C148.361 222.91 147.658 218.346 144.737 213.816C137.422 202.469 123.099 202.037 120.927 202.007C118.164 201.968 105.608 201.793 98.3059 211.592C94.1818 217.126 93.728 223.166 93.6953 225.836" fill="#1C1651"/>
<path d="M148.552 225.551C148.361 222.91 147.658 218.346 144.737 213.816C137.422 202.469 123.099 202.037 120.927 202.007C118.164 201.968 105.608 201.793 98.3059 211.592C94.1818 217.126 93.728 223.166 93.6953 225.836" stroke="#38BA9B" stroke-width="6.77042" stroke-miterlimit="10" stroke-linecap="round"/>
<path d="M203.929 225.551C203.738 222.91 203.035 218.346 200.114 213.816C192.799 202.469 178.476 202.037 176.304 202.007C173.541 201.968 160.985 201.793 153.683 211.592C149.559 217.126 149.105 223.166 149.072 225.836" fill="#1C1651"/>
<path d="M203.929 225.551C203.738 222.91 203.035 218.346 200.114 213.816C192.799 202.469 178.476 202.037 176.304 202.007C173.541 201.968 160.985 201.793 153.683 211.592C149.559 217.126 149.105 223.166 149.072 225.836" stroke="#E8E8E8" stroke-width="6.77042" stroke-miterlimit="10" stroke-linecap="round"/>
<path d="M259.307 225.551C259.116 222.91 258.412 218.346 255.492 213.816C248.177 202.469 233.854 202.037 231.682 202.007C228.919 201.968 216.363 201.793 209.061 211.592C204.937 217.126 204.483 223.166 204.45 225.836" fill="#1C1651"/>
<path d="M259.307 225.551C259.116 222.91 258.412 218.346 255.492 213.816C248.177 202.469 233.854 202.037 231.682 202.007C228.919 201.968 216.363 201.793 209.061 211.592C204.937 217.126 204.483 223.166 204.45 225.836" stroke="#38BA9B" stroke-width="6.77042" stroke-miterlimit="10" stroke-linecap="round"/>
<path d="M314.685 225.551C314.494 222.91 313.79 218.346 310.87 213.816C303.555 202.469 289.232 202.037 287.06 202.007C284.297 201.968 271.741 201.793 264.439 211.592C260.315 217.126 259.861 223.166 259.828 225.836" fill="#1C1651"/>
<path d="M314.685 225.551C314.494 222.91 313.79 218.346 310.87 213.816C303.555 202.469 289.232 202.037 287.06 202.007C284.297 201.968 271.741 201.793 264.439 211.592C260.315 217.126 259.861 223.166 259.828 225.836" stroke="#E8E8E8" stroke-width="6.77042" stroke-miterlimit="10" stroke-linecap="round"/>
<path d="M370.062 225.551C369.871 222.91 369.167 218.346 366.247 213.816C358.932 202.469 344.609 202.037 342.437 202.007C339.674 201.968 327.117 201.793 319.816 211.592C315.692 217.126 315.238 223.166 315.205 225.836" fill="#1C1651"/>
<path d="M370.062 225.551C369.871 222.91 369.167 218.346 366.247 213.816C358.932 202.469 344.609 202.037 342.437 202.007C339.674 201.968 327.117 201.793 319.816 211.592C315.692 217.126 315.238 223.166 315.205 225.836" stroke="#38BA9B" stroke-width="6.77042" stroke-miterlimit="10" stroke-linecap="round"/>
<path d="M425.44 225.551C425.249 222.91 424.545 218.346 421.625 213.816C414.31 202.469 399.987 202.037 397.815 202.007C395.052 201.968 382.495 201.793 375.194 211.592C371.069 217.126 370.616 223.166 370.583 225.836" fill="#1C1651"/>
<path d="M425.44 225.551C425.249 222.91 424.545 218.346 421.625 213.816C414.31 202.469 399.987 202.037 397.815 202.007C395.052 201.968 382.495 201.793 375.194 211.592C371.069 217.126 370.616 223.166 370.583 225.836" stroke="#E8E8E8" stroke-width="6.77042" stroke-miterlimit="10" stroke-linecap="round"/>
<path d="M480.817 225.551C480.626 222.91 479.922 218.346 477.002 213.816C469.687 202.469 455.364 202.037 453.192 202.007C450.429 201.968 437.872 201.793 430.571 211.592C426.446 217.126 425.993 223.166 425.96 225.836" fill="#1C1651"/>
<path d="M480.817 225.551C480.626 222.91 479.922 218.346 477.002 213.816C469.687 202.469 455.364 202.037 453.192 202.007C450.429 201.968 437.872 201.793 430.571 211.592C426.446 217.126 425.993 223.166 425.96 225.836" stroke="#38BA9B" stroke-width="6.77042" stroke-miterlimit="10" stroke-linecap="round"/>
<path d="M536.196 225.551C536.004 222.91 535.301 218.346 532.381 213.816C525.066 202.469 510.743 202.037 508.571 202.007C505.808 201.968 493.251 201.793 485.949 211.592C481.825 217.126 481.372 223.166 481.339 225.836" fill="#1C1651"/>
<path d="M536.196 225.551C536.004 222.91 535.301 218.346 532.381 213.816C525.066 202.469 510.743 202.037 508.571 202.007C505.808 201.968 493.251 201.793 485.949 211.592C481.825 217.126 481.372 223.166 481.339 225.836" stroke="#E8E8E8" stroke-width="6.77042" stroke-miterlimit="10" stroke-linecap="round"/>
<path d="M591.573 225.551C591.381 222.91 590.678 218.346 587.758 213.816C580.443 202.469 566.12 202.037 563.948 202.007C561.185 201.968 548.628 201.793 541.326 211.592C537.202 217.126 536.748 223.166 536.716 225.836" fill="#1C1651"/>
<path d="M591.573 225.551C591.381 222.91 590.678 218.346 587.758 213.816C580.443 202.469 566.12 202.037 563.948 202.007C561.185 201.968 548.628 201.793 541.326 211.592C537.202 217.126 536.748 223.166 536.716 225.836" stroke="#38BA9B" stroke-width="6.77042" stroke-miterlimit="10" stroke-linecap="round"/>
<path d="M646.949 225.551C646.758 222.91 646.055 218.346 643.134 213.816C635.82 202.469 621.497 202.037 619.325 202.007C616.562 201.968 604.005 201.793 596.703 211.592C592.579 217.126 592.125 223.166 592.093 225.836" fill="#1C1651"/>
<path d="M646.949 225.551C646.758 222.91 646.055 218.346 643.134 213.816C635.82 202.469 621.497 202.037 619.325 202.007C616.562 201.968 604.005 201.793 596.703 211.592C592.579 217.126 592.125 223.166 592.093 225.836" stroke="#E8E8E8" stroke-width="6.77042" stroke-miterlimit="10" stroke-linecap="round"/>
<path d="M702.327 225.551C702.136 222.91 701.433 218.346 698.512 213.816C691.197 202.469 676.874 202.037 674.703 202.007C671.94 201.968 659.383 201.793 652.081 211.592C647.957 217.126 647.503 223.166 647.471 225.836" fill="#1C1651"/>
<path d="M702.327 225.551C702.136 222.91 701.433 218.346 698.512 213.816C691.197 202.469 676.874 202.037 674.703 202.007C671.94 201.968 659.383 201.793 652.081 211.592C647.957 217.126 647.503 223.166 647.471 225.836" stroke="#38BA9B" stroke-width="6.77042" stroke-miterlimit="10" stroke-linecap="round"/>
<path d="M757.705 225.551C757.514 222.91 756.811 218.346 753.89 213.816C746.575 202.469 732.252 202.037 730.08 202.007C727.318 201.968 714.761 201.793 707.459 211.592C703.335 217.126 702.881 223.166 702.849 225.836" fill="#1C1651"/>
<path d="M757.705 225.551C757.514 222.91 756.811 218.346 753.89 213.816C746.575 202.469 732.252 202.037 730.08 202.007C727.318 201.968 714.761 201.793 707.459 211.592C703.335 217.126 702.881 223.166 702.849 225.836" stroke="#E8E8E8" stroke-width="6.77042" stroke-miterlimit="10" stroke-linecap="round"/>
</g>
<defs>
<clipPath id="clip0_1467_2341">
<rect width="716" height="226" fill="white" transform="translate(0.5)"/>
</clipPath>
<clipPath id="clip1_1467_2341">
<rect width="382" height="87" fill="white" transform="translate(168 57)"/>
</clipPath>
</defs>
</svg>
