<svg width="1118" height="617" viewBox="0 0 1118 617" fill="none" xmlns="http://www.w3.org/2000/svg">
<g clip-path="url(#clip0_1467_2382)">
<rect width="1117" height="617" transform="translate(0.5)" fill="#1C1651"/>
<g clip-path="url(#clip1_1467_2382)">
<path d="M1023.65 -174.495H79.958V769.2H1023.65V-174.495Z" stroke="#EFEFEF" stroke-opacity="0.22" stroke-width="1.55489" stroke-miterlimit="10"/>
<path d="M79.959 2.44873H1023.65" stroke="#EFEFEF" stroke-opacity="0.19" stroke-width="1.55489" stroke-miterlimit="10"/>
<path d="M79.959 61.4292H1023.65" stroke="#EFEFEF" stroke-opacity="0.19" stroke-width="1.55489" stroke-miterlimit="10"/>
<path d="M79.959 120.411H1023.65" stroke="#EFEFEF" stroke-opacity="0.19" stroke-width="1.55489" stroke-miterlimit="10"/>
<path d="M79.959 179.392H1023.65" stroke="#EFEFEF" stroke-opacity="0.19" stroke-width="1.55489" stroke-miterlimit="10"/>
<path d="M79.959 238.372H1023.65" stroke="#EFEFEF" stroke-opacity="0.19" stroke-width="1.55489" stroke-miterlimit="10"/>
<path d="M79.959 297.353H1023.65" stroke="#EFEFEF" stroke-opacity="0.19" stroke-width="1.55489" stroke-miterlimit="10"/>
<path d="M79.959 356.334H1023.65" stroke="#EFEFEF" stroke-opacity="0.19" stroke-width="1.55489" stroke-miterlimit="10"/>
<path d="M79.959 415.314H1023.65" stroke="#EFEFEF" stroke-opacity="0.19" stroke-width="1.55489" stroke-miterlimit="10"/>
<path d="M79.959 474.295H1023.65" stroke="#EFEFEF" stroke-opacity="0.19" stroke-width="1.55489" stroke-miterlimit="10"/>
<path d="M79.959 533.276H1023.65" stroke="#EFEFEF" stroke-opacity="0.19" stroke-width="1.55489" stroke-miterlimit="10"/>
<path d="M79.959 592.257H1023.65" stroke="#EFEFEF" stroke-opacity="0.19" stroke-width="1.55489" stroke-miterlimit="10"/>
<path d="M964.671 769.201V-174.494" stroke="#EFEFEF" stroke-opacity="0.19" stroke-width="1.55489" stroke-miterlimit="10"/>
<path d="M905.691 769.201V-174.494" stroke="#EFEFEF" stroke-opacity="0.19" stroke-width="1.55489" stroke-miterlimit="10"/>
<path d="M846.71 769.201V-174.494" stroke="#EFEFEF" stroke-opacity="0.19" stroke-width="1.55489" stroke-miterlimit="10"/>
<path d="M787.729 769.2V-174.495" stroke="#EFEFEF" stroke-opacity="0.19" stroke-width="1.55489" stroke-miterlimit="10"/>
<path d="M728.746 769.2V-174.495" stroke="#EFEFEF" stroke-opacity="0.19" stroke-width="1.55489" stroke-miterlimit="10"/>
<path d="M669.767 769.201V-174.494" stroke="#EFEFEF" stroke-opacity="0.19" stroke-width="1.55489" stroke-miterlimit="10"/>
<path d="M610.784 769.201V-174.494" stroke="#EFEFEF" stroke-opacity="0.19" stroke-width="1.55489" stroke-miterlimit="10"/>
<path d="M551.805 769.201V-174.494" stroke="#EFEFEF" stroke-opacity="0.19" stroke-width="1.55489" stroke-miterlimit="10"/>
<path d="M492.824 769.201V-174.494" stroke="#EFEFEF" stroke-opacity="0.19" stroke-width="1.55489" stroke-miterlimit="10"/>
<path d="M433.841 769.201V-174.494" stroke="#EFEFEF" stroke-opacity="0.19" stroke-width="1.55489" stroke-miterlimit="10"/>
<path d="M374.859 769.201V-174.494" stroke="#EFEFEF" stroke-opacity="0.19" stroke-width="1.55489" stroke-miterlimit="10"/>
<path d="M315.88 769.2V-174.495" stroke="#EFEFEF" stroke-opacity="0.19" stroke-width="1.55489" stroke-miterlimit="10"/>
<path d="M256.898 769.2V-174.495" stroke="#EFEFEF" stroke-opacity="0.19" stroke-width="1.55489" stroke-miterlimit="10"/>
<path d="M197.92 769.2V-174.495" stroke="#EFEFEF" stroke-opacity="0.19" stroke-width="1.55489" stroke-miterlimit="10"/>
<path d="M138.938 769.2V-174.495" stroke="#EFEFEF" stroke-opacity="0.19" stroke-width="1.55489" stroke-miterlimit="10"/>
<path d="M-863.737 2.44849H79.9572" stroke="#EFEFEF" stroke-opacity="0.19" stroke-width="1.55489" stroke-miterlimit="10"/>
<path d="M-863.737 61.4292H79.9572" stroke="#EFEFEF" stroke-opacity="0.19" stroke-width="1.55489" stroke-miterlimit="10"/>
<path d="M-863.737 120.41H79.9572" stroke="#EFEFEF" stroke-opacity="0.19" stroke-width="1.55489" stroke-miterlimit="10"/>
<path d="M-863.737 179.392H79.9572" stroke="#EFEFEF" stroke-opacity="0.19" stroke-width="1.55489" stroke-miterlimit="10"/>
<path d="M-863.737 238.372H79.9572" stroke="#EFEFEF" stroke-opacity="0.19" stroke-width="1.55489" stroke-miterlimit="10"/>
<path d="M-863.737 297.353H79.9572" stroke="#EFEFEF" stroke-opacity="0.19" stroke-width="1.55489" stroke-miterlimit="10"/>
<path d="M-863.737 356.334H79.9572" stroke="#EFEFEF" stroke-opacity="0.19" stroke-width="1.55489" stroke-miterlimit="10"/>
<path d="M-863.737 415.314H79.9572" stroke="#EFEFEF" stroke-opacity="0.19" stroke-width="1.55489" stroke-miterlimit="10"/>
<path d="M-863.737 474.295H79.9572" stroke="#EFEFEF" stroke-opacity="0.19" stroke-width="1.55489" stroke-miterlimit="10"/>
<path d="M-863.737 533.276H79.9572" stroke="#EFEFEF" stroke-opacity="0.19" stroke-width="1.55489" stroke-miterlimit="10"/>
<path d="M-863.737 592.257H79.9572" stroke="#EFEFEF" stroke-opacity="0.19" stroke-width="1.55489" stroke-miterlimit="10"/>
<path d="M20.9766 769.201V-174.494" stroke="#EFEFEF" stroke-opacity="0.19" stroke-width="1.55489" stroke-miterlimit="10"/>
<path d="M1967.38 -174.528H1023.69V769.167H1967.38V-174.528Z" stroke="#EFEFEF" stroke-opacity="0.19" stroke-width="1.55489" stroke-miterlimit="10"/>
<path d="M1023.69 2.41455H1967.38" stroke="#EFEFEF" stroke-opacity="0.19" stroke-width="1.55489" stroke-miterlimit="10"/>
<path d="M1023.69 61.396H1967.38" stroke="#EFEFEF" stroke-opacity="0.19" stroke-width="1.55489" stroke-miterlimit="10"/>
<path d="M1023.69 120.377H1967.38" stroke="#EFEFEF" stroke-opacity="0.19" stroke-width="1.55489" stroke-miterlimit="10"/>
<path d="M1023.69 179.357H1967.38" stroke="#EFEFEF" stroke-opacity="0.19" stroke-width="1.55489" stroke-miterlimit="10"/>
<path d="M1023.69 238.339H1967.38" stroke="#EFEFEF" stroke-opacity="0.19" stroke-width="1.55489" stroke-miterlimit="10"/>
<path d="M1023.69 297.319H1967.38" stroke="#EFEFEF" stroke-opacity="0.19" stroke-width="1.55489" stroke-miterlimit="10"/>
<path d="M1023.69 356.301H1967.38" stroke="#EFEFEF" stroke-opacity="0.19" stroke-width="1.55489" stroke-miterlimit="10"/>
<path d="M1023.69 415.281H1967.38" stroke="#EFEFEF" stroke-opacity="0.19" stroke-width="1.55489" stroke-miterlimit="10"/>
<path d="M1023.69 474.262H1967.38" stroke="#EFEFEF" stroke-opacity="0.19" stroke-width="1.55489" stroke-miterlimit="10"/>
<path d="M1023.69 533.243H1967.38" stroke="#EFEFEF" stroke-opacity="0.19" stroke-width="1.55489" stroke-miterlimit="10"/>
<path d="M1023.69 592.224H1967.38" stroke="#EFEFEF" stroke-opacity="0.19" stroke-width="1.55489" stroke-miterlimit="10"/>
<path d="M1082.67 769.167V-174.528" stroke="#EFEFEF" stroke-opacity="0.19" stroke-width="1.55489" stroke-miterlimit="10"/>
<path d="M1965.16 -1116L-861.551 1710.71" stroke="#EFEFEF" stroke-opacity="0.19" stroke-width="1.55489" stroke-miterlimit="10"/>
<path d="M-861.551 -1116L1965.16 1710.71" stroke="#EFEFEF" stroke-opacity="0.19" stroke-width="1.55489" stroke-miterlimit="10"/>
<path d="M134.617 616.112C134.046 608.229 131.946 594.603 123.227 581.077C101.387 547.199 58.6251 545.91 52.1406 545.82C43.8918 545.705 6.40318 545.183 -15.397 574.438C-27.7098 590.961 -29.0646 608.994 -29.1621 616.964" fill="#1C1651"/>
<path d="M134.617 616.112C134.046 608.229 131.946 594.603 123.227 581.077C101.387 547.199 58.6251 545.91 52.1406 545.82C43.8918 545.705 6.40318 545.183 -15.397 574.438C-27.7098 590.961 -29.0646 608.994 -29.1621 616.964" stroke="#38BA9B" stroke-width="20.2136" stroke-miterlimit="10" stroke-linecap="round"/>
<path d="M299.951 616.112C299.38 608.229 297.28 594.603 288.561 581.077C266.721 547.199 223.959 545.91 217.475 545.82C209.226 545.705 171.737 545.183 149.937 574.438C137.624 590.961 136.269 608.994 136.172 616.964" fill="#1C1651"/>
<path d="M299.951 616.112C299.38 608.229 297.28 594.603 288.561 581.077C266.721 547.199 223.959 545.91 217.475 545.82C209.226 545.705 171.737 545.183 149.937 574.438C137.624 590.961 136.269 608.994 136.172 616.964" stroke="#E8E8E8" stroke-width="20.2136" stroke-miterlimit="10" stroke-linecap="round"/>
<path d="M465.285 616.112C464.714 608.229 462.614 594.603 453.895 581.077C432.055 547.199 389.293 545.91 382.809 545.82C374.56 545.705 337.071 545.183 315.271 574.438C302.958 590.961 301.603 608.994 301.506 616.964" fill="#1C1651"/>
<path d="M465.285 616.112C464.714 608.229 462.614 594.603 453.895 581.077C432.055 547.199 389.293 545.91 382.809 545.82C374.56 545.705 337.071 545.183 315.271 574.438C302.958 590.961 301.603 608.994 301.506 616.964" stroke="#38BA9B" stroke-width="20.2136" stroke-miterlimit="10" stroke-linecap="round"/>
<path d="M630.617 616.112C630.046 608.229 627.946 594.603 619.227 581.077C597.387 547.199 554.625 545.91 548.141 545.82C539.892 545.705 502.403 545.183 480.603 574.438C468.29 590.961 466.935 608.994 466.838 616.964" fill="#1C1651"/>
<path d="M630.617 616.112C630.046 608.229 627.946 594.603 619.227 581.077C597.387 547.199 554.625 545.91 548.141 545.82C539.892 545.705 502.403 545.183 480.603 574.438C468.29 590.961 466.935 608.994 466.838 616.964" stroke="#E8E8E8" stroke-width="20.2136" stroke-miterlimit="10" stroke-linecap="round"/>
<path d="M795.951 616.112C795.38 608.229 793.28 594.603 784.561 581.077C762.721 547.199 719.959 545.91 713.475 545.82C705.226 545.705 667.737 545.183 645.937 574.438C633.624 590.961 632.269 608.994 632.172 616.964" fill="#1C1651"/>
<path d="M795.951 616.112C795.38 608.229 793.28 594.603 784.561 581.077C762.721 547.199 719.959 545.91 713.475 545.82C705.226 545.705 667.737 545.183 645.937 574.438C633.624 590.961 632.269 608.994 632.172 616.964" stroke="#38BA9B" stroke-width="20.2136" stroke-miterlimit="10" stroke-linecap="round"/>
<path d="M961.286 616.112C960.716 608.229 958.616 594.603 949.897 581.077C928.057 547.199 885.295 545.91 878.81 545.82C870.562 545.705 833.073 545.183 811.273 574.438C798.96 590.961 797.605 608.994 797.508 616.964" fill="#1C1651"/>
<path d="M961.286 616.112C960.716 608.229 958.616 594.603 949.897 581.077C928.057 547.199 885.295 545.91 878.81 545.82C870.562 545.705 833.073 545.183 811.273 574.438C798.96 590.961 797.605 608.994 797.508 616.964" stroke="#E8E8E8" stroke-width="20.2136" stroke-miterlimit="10" stroke-linecap="round"/>
<path d="M1126.62 616.112C1126.05 608.229 1123.95 594.603 1115.23 581.077C1093.39 547.199 1050.63 545.91 1044.14 545.82C1035.9 545.705 998.407 545.183 976.607 574.438C964.294 590.961 962.939 608.994 962.842 616.964" fill="#1C1651"/>
<path d="M1126.62 616.112C1126.05 608.229 1123.95 594.603 1115.23 581.077C1093.39 547.199 1050.63 545.91 1044.14 545.82C1035.9 545.705 998.407 545.183 976.607 574.438C964.294 590.961 962.939 608.994 962.842 616.964" stroke="#38BA9B" stroke-width="20.2136" stroke-miterlimit="10" stroke-linecap="round"/>
<path d="M598.619 415.03C587.484 415.03 577.25 408.957 571.91 399.181L554.368 367.02C553.259 364.983 549.922 364.983 548.809 367.02L531.274 399.177C525.938 408.957 515.703 415.03 504.559 415.03C491.07 415.03 479.277 406.387 475.216 393.529L447.572 294.852C442.039 277.343 439.186 258.833 439.186 240.154C439.186 206.493 466.565 179.107 500.218 179.107C515.33 179.107 524.673 182.18 532.916 184.891C539.315 186.995 544.369 188.656 551.589 188.656C558.813 188.656 563.869 186.995 570.268 184.889C578.509 182.18 587.851 179.107 602.952 179.107C636.406 179.107 663.217 205.822 663.993 239.925C664.129 246.016 663.632 248.803 662.54 254.91L662.077 257.521C661.108 263.017 655.853 266.667 650.375 265.722C644.879 264.755 641.207 259.516 642.174 254.02L642.648 251.354C643.646 245.776 643.883 244.45 643.79 240.381C643.267 217.354 625.33 199.314 602.952 199.314C591.089 199.314 584.042 201.631 576.581 204.086C569.438 206.434 562.05 208.863 551.589 208.863C541.131 208.863 533.746 206.434 526.605 204.086C519.142 201.633 512.091 199.314 500.218 199.314C477.706 199.314 459.392 217.634 459.392 240.154C459.392 256.767 461.93 273.23 466.934 289.086L494.58 387.759C495.881 391.86 499.928 394.824 504.559 394.824C508.303 394.824 511.742 392.783 513.534 389.5L531.071 357.343C535.171 349.828 543.033 345.163 551.589 345.163C560.147 345.163 568.011 349.832 572.108 357.343L589.646 389.5C591.438 392.783 594.878 394.824 598.619 394.824C603.25 394.824 607.302 391.856 608.697 387.44L624.722 336.69C626.401 331.37 632.072 328.418 637.398 330.099C642.718 331.776 645.671 337.456 643.989 342.776L627.964 393.529C623.899 406.391 612.107 415.03 598.619 415.03Z" fill="#E8E8E8"/>
<path d="M571.416 322.885C515.574 322.885 480.885 291.786 480.885 241.723V231.62H520.191C525.772 231.62 530.294 236.143 530.294 241.723C530.294 247.304 525.772 251.827 520.191 251.827H501.672C506.938 295.792 546.92 302.679 571.416 302.679C602.958 302.679 637.656 284.587 642.947 250.009C643.789 244.492 648.942 240.687 654.461 241.55C659.978 242.394 663.765 247.548 662.921 253.064C656.73 293.521 618.247 322.885 571.416 322.885Z" fill="#E8E8E8"/>
<path d="M717.136 165.975C703.954 170.871 693.49 181.348 688.602 194.522C687.567 197.309 683.616 197.311 682.58 194.524C677.683 181.349 667.202 170.872 654.011 165.975C651.222 164.94 651.223 160.987 654.012 159.953C667.202 155.064 677.683 144.6 682.58 131.418C683.616 128.631 687.568 128.633 688.602 131.42C693.491 144.601 703.953 155.064 717.134 159.953C719.922 160.987 719.923 164.939 717.136 165.975Z" fill="#E8E8E8"/>
<path d="M654.19 242.677C653.619 250.56 651.52 264.186 642.8 277.712C620.961 311.59 578.198 312.879 571.714 312.969C563.465 313.084 525.976 313.607 504.176 284.352C491.863 267.828 490.509 249.796 490.411 241.826" stroke="#38BA9B" stroke-width="20.2136" stroke-miterlimit="10" stroke-linecap="round"/>
</g>
</g>
<defs>
<clipPath id="clip0_1467_2382">
<rect width="1117" height="617" fill="white" transform="translate(0.5)"/>
</clipPath>
<clipPath id="clip1_1467_2382">
<rect width="3159.54" height="1946.72" fill="white" transform="translate(-1031.27 -1119)"/>
</clipPath>
</defs>
</svg>
